<svg xmlns="http://www.w3.org/2000/svg" xmlns:xlink="http://www.w3.org/1999/xlink" viewBox="0 0 834.2 903.17"><defs><style>.cls-1{fill:url(#linear-gradient);}.cls-2{font-size:96.87px;fill:#fff;font-family:Poppins-Bold, Poppins;font-weight:700;}</style><linearGradient id="linear-gradient" x1="-279.79" y1="401.69" x2="554.41" y2="401.69" gradientUnits="userSpaceOnUse"><stop offset="0" stop-color="#022caf"/><stop offset="1" stop-color="#0d88d6"/></linearGradient></defs><g id="Layer_2" data-name="Layer 2"><g id="Layer_1-2" data-name="Layer 1"><path class="cls-1" d="M520,.24V0H314.16C313.92,4.31,288.9,434.67,0,633.69L116.91,803.38A765.41,765.41,0,0,0,221.7,716.57H612.46a764.71,764.71,0,0,0,104.78,86.81l117-169.69C548,436.54,520.71,12.46,520,.24ZM219,519.7l21-27c86.13-111,99.36-215.42,99.51-216.47l33.31,3.88V398.86l-29.48-17a565.85,565.85,0,0,1-57,104.31h114V207h-22.1l38.87-67.35L456,207H433.9V486.15h114a566,566,0,0,1-57-104.31l-29.47,17V280.08l33.31-3.88c.14,1.05,13.37,105.5,99.51,216.47l21,27Z"/><text class="cls-2" transform="translate(228.06 844.47)">finance</text></g></g></svg>