<svg xmlns="http://www.w3.org/2000/svg" xmlns:xlink="http://www.w3.org/1999/xlink" viewBox="0 0 91.43 91.43"><defs><style>.cls-1{fill:none;}.cls-2{clip-path:url(#clip-path);}.cls-3{fill:#346178;}.cls-4{fill:#fdc00f;}.cls-10,.cls-5,.cls-8{fill:#fff;}.cls-6{fill:#fee69f;}.cls-7{opacity:0.1;}.cls-8{opacity:0.4;}.cls-9{fill:#be900b;}.cls-10{opacity:0.5;}.cls-11{fill:#8fc3d8;}</style><clipPath id="clip-path"><path class="cls-1" d="M91.43,45.71A45.72,45.72,0,1,1,45.71,0,45.72,45.72,0,0,1,91.43,45.71Z"/></clipPath></defs><title>Asset 9</title><g id="Layer_2" data-name="Layer 2"><g id="Layer_1-2" data-name="Layer 1"><g class="cls-2"><path class="cls-3" d="M91.43,45.71A45.72,45.72,0,1,1,45.71,0,45.72,45.72,0,0,1,91.43,45.71Z"/><path class="cls-4" d="M14,91.43H77.39s3-15.53,0-19.35c-3.48-4.51-22-5.72-22-5.72H36.09S17.52,67.57,14,72.08C11.08,75.9,14,91.43,14,91.43Z"/><rect class="cls-5" x="45.14" y="80.9" width="1.14" height="10.53"/><path class="cls-6" d="M63.06,39.44c-1.31-.8-3.22.74-4.28,3.45s-.86,5.54.45,6.34,3.22-.74,4.27-3.44S64.36,40.24,63.06,39.44Z"/><path class="cls-6" d="M28.37,39.44c1.31-.8,3.22.74,4.28,3.45s.85,5.54-.45,6.34-3.22-.74-4.28-3.44S27.07,40.24,28.37,39.44Z"/><path class="cls-6" d="M53.66,47.34H37.76l-1.67,19S36.15,75,45.71,82c9.57-7.08,9.63-15.68,9.63-15.68Z"/><path class="cls-7" d="M45.71,61.28c-3.21,0-6.22-1.54-8.82-4l-.09,1c2.62,2.54,5.66,4.12,8.91,4.12s6.3-1.57,8.92-4.11l-.09-1.06A12.86,12.86,0,0,1,45.71,61.28Z"/><path class="cls-6" d="M63.43,34.61c0,12.52-7.93,26.67-17.72,26.67S28,47.13,28,34.61s7.93-18.69,17.71-18.69S63.43,22.08,63.43,34.61Z"/><path class="cls-8" d="M45.71,15.92C35.93,15.92,28,22.08,28,34.61s7.93,26.67,17.71,26.67Z"/><polygon class="cls-5" points="55.34 66.36 59.83 71.86 56.83 72.38 58.1 75.12 45.72 82.04 55.34 66.36"/><polygon class="cls-5" points="36.09 66.36 31.6 71.86 34.6 72.38 33.33 75.12 45.72 82.04 36.09 66.36"/><path class="cls-9" d="M63.43,30.46a20.2,20.2,0,0,0-1.52-5.37A15.5,15.5,0,0,0,58.3,20a16.41,16.41,0,0,0-5.76-3.47,20.86,20.86,0,0,0-13.66,0A16.48,16.48,0,0,0,33.12,20a15.76,15.76,0,0,0-3.6,5.13A19.73,19.73,0,0,0,28,30.46a24.73,24.73,0,0,0-.19,4.69c.15,1.38.17,2.59.37,3.57l.63,3.07h1S28.28,24.54,37.4,21.27c5.31-1.9,8.31,1.12,8.31,1.12s3-3,8.32-1.12c9.12,3.27,7.62,20.52,7.62,20.52h1l.63-3.06c.2-1,.22-2.2.36-3.58A23.87,23.87,0,0,0,63.43,30.46Z"/><path class="cls-10" d="M42.71,40.34A4.7,4.7,0,1,1,38,35.64,4.69,4.69,0,0,1,42.71,40.34Z"/><path class="cls-11" d="M38,45.6a5.27,5.27,0,1,1,5.26-5.26A5.27,5.27,0,0,1,38,45.6Zm0-9.39a4.13,4.13,0,1,0,4.12,4.13A4.13,4.13,0,0,0,38,36.21Z"/><path class="cls-10" d="M58.1,40.34a4.69,4.69,0,1,1-4.69-4.7A4.69,4.69,0,0,1,58.1,40.34Z"/><path class="cls-11" d="M53.41,45.6a5.27,5.27,0,1,1,5.26-5.26A5.27,5.27,0,0,1,53.41,45.6Zm0-9.39a4.13,4.13,0,1,0,4.12,4.13A4.13,4.13,0,0,0,53.41,36.21Z"/><path class="cls-11" d="M42.88,39.31l-.79-.82a5.26,5.26,0,0,1,7.24,0l-.78.83A4.22,4.22,0,0,0,42.88,39.31Z"/><path class="cls-11" d="M58.09,40.91a.56.56,0,0,1-.55-.45.57.57,0,0,1,.42-.68l5-1.14a.57.57,0,0,1,.69.42.58.58,0,0,1-.43.69l-5,1.14Z"/><path class="cls-11" d="M33.32,40.89H33.2l-5-1.14a.57.57,0,0,1-.43-.69.58.58,0,0,1,.69-.43l5,1.15a.57.57,0,0,1-.13,1.12Z"/></g></g></g></svg>