<svg xmlns="http://www.w3.org/2000/svg" xmlns:xlink="http://www.w3.org/1999/xlink" viewBox="0 0 91.43 91.43"><defs><style>.cls-1{fill:none;}.cls-2{clip-path:url(#clip-path);}.cls-3{fill:#fdc00f;}.cls-4{fill:#fee69f;}.cls-5{fill:#8fc3d8;}.cls-6{opacity:0.1;}.cls-7,.cls-9{fill:#fff;}.cls-8{fill:#6b92a2;}.cls-9{opacity:0.4;}.cls-10{fill:#303030;}</style><clipPath id="clip-path"><circle class="cls-1" cx="45.71" cy="45.71" r="45.71" transform="translate(-17.25 31.05) rotate(-31.89)"/></clipPath></defs><title>Asset 2</title><g id="Layer_2" data-name="Layer 2"><g id="Layer_1-2" data-name="Layer 1"><g class="cls-2"><circle class="cls-3" cx="45.71" cy="45.71" r="45.71" transform="translate(-17.25 31.05) rotate(-31.89)"/><path class="cls-4" d="M63.06,39.44c-1.31-.8-3.22.74-4.28,3.45s-.86,5.54.45,6.34,3.22-.74,4.27-3.44S64.36,40.24,63.06,39.44Z"/><path class="cls-4" d="M28.37,39.44c1.3-.8,3.22.74,4.28,3.45s.85,5.54-.45,6.34-3.22-.74-4.28-3.44S27.07,40.24,28.37,39.44Z"/><path class="cls-5" d="M77.39,72.08c-3.49-4.51-22-5.72-22-5.72H36.09S17.52,67.57,14,72.08c-3,3.82,0,19.35,0,19.35H77.39S80.35,75.9,77.39,72.08Z"/><path class="cls-4" d="M63.43,34.61c0,12.53-7.93,26.67-17.72,26.67S28,47.14,28,34.61s7.94-18.69,17.72-18.69S63.43,22.09,63.43,34.61Z"/><path class="cls-4" d="M53.67,47.34H37.76l-1.67,19c0,2.11,4.31,3.81,9.62,3.81s9.63-1.7,9.63-3.81Z"/><path class="cls-6" d="M45.71,61.28a12.86,12.86,0,0,1-8.82-4l-.09,1c2.62,2.54,5.66,4.12,8.91,4.12s6.3-1.56,8.92-4.11l-.09-1.06A12.86,12.86,0,0,1,45.71,61.28Z"/><path class="cls-7" d="M57.91,66.59l-2.3-.19-9.89,3.84,2.28,6,9.38-4.86Z"/><path class="cls-7" d="M33.52,66.59l2.3-.19,9.9,3.84-2.29,6-9.38-4.86Z"/><polygon class="cls-8" points="45.72 70.24 46.29 91.43 45.14 91.43 45.72 70.24"/><polygon class="cls-8" points="45.72 70.24 48.31 76.12 47.84 75.94 56.97 70.59 56.49 71.28 56.77 66.46 59.04 66.71 58.26 71.48 58.18 72 57.79 72.17 48.16 76.54 47.8 76.7 47.69 76.36 45.72 70.24"/><path class="cls-5" d="M57.91,66.59l-2.3-.19-9.89,3.84,2.28,6,9.38-4.86Z"/><polygon class="cls-8" points="45.72 70.24 43.75 76.36 43.63 76.7 43.27 76.54 33.64 72.17 33.25 72 33.17 71.48 32.39 66.71 34.66 66.46 34.94 71.28 34.46 70.59 43.59 75.94 43.12 76.12 45.72 70.24"/><path class="cls-5" d="M33.52,66.59l2.3-.19,9.9,3.84-2.29,6-9.38-4.86Z"/><path class="cls-9" d="M45.71,15.92V61.28C35.93,61.27,28,47.13,28,34.61S35.93,15.92,45.71,15.92Z"/><path class="cls-10" d="M45.71,15.92a17.7,17.7,0,0,0-12.42,4.56,2.93,2.93,0,0,0-.66,0l-.68.07a3.63,3.63,0,0,0-.55.1l-.42.09-.36.09.36.06.42.08a3,3,0,0,1,.52.11l.33.1-.58.1a5.65,5.65,0,0,0-.88.25,4.34,4.34,0,0,0-.75.32,2.53,2.53,0,0,0-.58.38,1.39,1.39,0,0,0-.37.35l-.28.34.37-.23a1.52,1.52,0,0,1,.44-.19,2,2,0,0,1,.59-.14,3.35,3.35,0,0,1,.72-.05,2.83,2.83,0,0,1,.5,0l-.2.09a9.93,9.93,0,0,0-1.54.87,6.59,6.59,0,0,0-1.16,1c-.15.16-.26.34-.37.48a1.57,1.57,0,0,0-.22.39l-.17.35.28-.26a2,2,0,0,1,.34-.26,4.17,4.17,0,0,1,.47-.28,5.82,5.82,0,0,1,1.28-.43l.29-.05A21.08,21.08,0,0,0,28,34.61a33.38,33.38,0,0,0,.69,6.56h1.16s.47-5.13,2.42-6.87c1.17-1,2-5.13,2.49-8.22a8.22,8.22,0,0,0,2,4s-1.08-2.4,0-3.45c0,0,1,3.69,2.33,4.6a2.17,2.17,0,0,1,.61-1.88s1.54,5.74,16.81,2.56c0,0,4.9,5.95,5.05,9.23h1.15a33.36,33.36,0,0,0,.68-6.56C63.43,22.09,55.5,15.92,45.71,15.92Z"/></g></g></g></svg>