<svg xmlns="http://www.w3.org/2000/svg" xmlns:xlink="http://www.w3.org/1999/xlink" viewBox="0 0 91.43 91.43"><defs><style>.cls-1{fill:none;}.cls-2{clip-path:url(#clip-path);}.cls-3{fill:#346178;}.cls-4{fill:#fee69f;}.cls-5{opacity:0.1;}.cls-6{fill:#fc611f;}.cls-7{fill:#fff;opacity:0.4;}.cls-8{fill:#8f6c08;}</style><clipPath id="clip-path"><path class="cls-1" d="M91.43,45.72A45.72,45.72,0,1,1,45.71,0,45.72,45.72,0,0,1,91.43,45.72Z"/></clipPath></defs><title>Asset 3</title><g id="Layer_2" data-name="Layer 2"><g id="Layer_1-2" data-name="Layer 1"><g class="cls-2"><path class="cls-3" d="M91.43,45.72A45.72,45.72,0,1,1,45.71,0,45.72,45.72,0,0,1,91.43,45.72Z"/><path class="cls-4" d="M56.47,66.46a1.4,1.4,0,0,1-1.23-1.24L53.66,47.35H37.76L36.2,65.22A1.43,1.43,0,0,1,35,66.46l-1.55.13v0A16.77,16.77,0,0,0,34.85,69a26,26,0,0,0,1.74,2.22,38.08,38.08,0,0,0,4.52,4.52,27.6,27.6,0,0,0,2.22,1.72,17,17,0,0,0,2.38,1.46h0a19.84,19.84,0,0,0,2.36-1.45,26,26,0,0,0,2.23-1.72c.78-.66,1.59-1.39,2.36-2.17S54.19,72,54.85,71.2s1.24-1.53,1.72-2.22A16.91,16.91,0,0,0,58,66.61v0Z"/><path class="cls-4" d="M63.06,39.44c-1.31-.8-3.22.75-4.28,3.45s-.86,5.55.45,6.35,3.22-.74,4.27-3.45S64.36,40.24,63.06,39.44Z"/><path class="cls-4" d="M28.37,39.44c1.3-.8,3.22.75,4.28,3.45s.85,5.55-.45,6.35S29,48.5,27.92,45.79,27.07,40.24,28.37,39.44Z"/><path class="cls-4" d="M63.43,34.61c0,12.53-7.93,26.67-17.72,26.67S28,47.14,28,34.61s7.94-18.69,17.72-18.69S63.43,22.09,63.43,34.61Z"/><path class="cls-5" d="M45.71,61.28a12.89,12.89,0,0,1-8.82-4l-.09,1c2.62,2.55,5.66,4.12,8.91,4.12s6.3-1.56,8.92-4.11l-.09-1.05A12.89,12.89,0,0,1,45.71,61.28Z"/><path class="cls-6" d="M77.39,72.08c3,3.83,0,19.35,0,19.35H14s-3-15.52,0-19.35c2.65-3.44,14.08-5,19.36-5.49v0A16.77,16.77,0,0,0,34.85,69a26,26,0,0,0,1.74,2.22,38.08,38.08,0,0,0,4.52,4.52,27.6,27.6,0,0,0,2.22,1.72,17,17,0,0,0,2.38,1.46h0a19.84,19.84,0,0,0,2.36-1.45,26,26,0,0,0,2.23-1.72c.78-.66,1.59-1.39,2.36-2.17S54.19,72,54.85,71.2s1.24-1.53,1.72-2.22A16.91,16.91,0,0,0,58,66.61v0C63.31,67.13,74.73,68.64,77.39,72.08Z"/><path class="cls-7" d="M45.71,15.92V61.28C35.93,61.28,28,47.14,28,34.61S35.93,15.93,45.71,15.92Z"/><path class="cls-8" d="M63.62,32.49c0-.77-.15-1.59-.25-2.43a21.23,21.23,0,0,0-1.59-5.26,16,16,0,0,0-3.65-5,16.37,16.37,0,0,0-5.7-3.35,20.85,20.85,0,0,0-6.74-1.12L44,15.43c-.57.05-1.15.14-1.72.21a20.55,20.55,0,0,0-3.31.83,16.46,16.46,0,0,0-5.7,3.35,15.79,15.79,0,0,0-3.64,5,20.41,20.41,0,0,0-1.59,5.26c-.1.84-.2,1.65-.26,2.42s0,1.5,0,2.19c.13,1.36.19,2.54.32,3.51.38,1.93.59,3,.59,3l1.59.31s.46-14.28,5.81-16.28a13.2,13.2,0,0,1,9.62,0,13.21,13.21,0,0,1,9.62,0c5.36,2,5.81,16.28,5.81,16.28l1.6-.31.58-3c.14-1,.2-2.16.32-3.53C63.63,34,63.63,33.25,63.62,32.49Z"/></g></g></g></svg>