<svg xmlns="http://www.w3.org/2000/svg" xmlns:xlink="http://www.w3.org/1999/xlink" viewBox="0 0 91.43 91.43"><defs><style>.cls-1{fill:none;}.cls-2{clip-path:url(#clip-path);}.cls-3{fill:#fc611f;}.cls-4{fill:#fee69f;}.cls-5{fill:#346178;}.cls-6{opacity:0.1;}.cls-7{fill:#fff;opacity:0.4;}.cls-8{fill:#fdc00f;}</style><clipPath id="clip-path"><circle class="cls-1" cx="45.71" cy="45.71" r="45.71" transform="matrix(0.16, -0.99, 0.99, 0.16, -6.71, 83.55)"/></clipPath></defs><title>Asset 4</title><g id="Layer_2" data-name="Layer 2"><g id="Layer_1-2" data-name="Layer 1"><g class="cls-2"><circle class="cls-3" cx="45.71" cy="45.71" r="45.71" transform="matrix(0.16, -0.99, 0.99, 0.16, -6.71, 83.55)"/><path class="cls-4" d="M63.06,39.44c-1.31-.8-3.22.74-4.28,3.45s-.86,5.54.45,6.34,3.22-.74,4.27-3.44S64.36,40.24,63.06,39.44Z"/><path class="cls-4" d="M28.37,39.44c1.31-.8,3.22.74,4.28,3.45s.85,5.54-.45,6.34-3.22-.74-4.28-3.44S27.07,40.24,28.37,39.44Z"/><path class="cls-5" d="M14,91.43H77.39s3-15.53,0-19.35c-3.48-4.51-22-5.72-22-5.72H36.09S17.52,67.57,14,72.08C11.08,75.9,14,91.43,14,91.43Z"/><path class="cls-4" d="M53.67,47.34H37.76l-1.67,19c0,2.11,4.31,3.81,9.62,3.81s9.63-1.7,9.63-3.81Z"/><path class="cls-4" d="M63.43,34.61c0,12.53-7.93,26.67-17.72,26.67S28,47.14,28,34.61s7.94-18.69,17.72-18.69S63.43,22.09,63.43,34.61Z"/><path class="cls-6" d="M45.71,61.28a12.86,12.86,0,0,1-8.82-4l-.09,1c2.62,2.54,5.66,4.12,8.91,4.12s6.3-1.56,8.92-4.11l-.09-1.06A12.86,12.86,0,0,1,45.71,61.28Z"/><path class="cls-7" d="M28,34.61c0,12.53,7.94,26.67,17.72,26.67V15.92C35.93,15.92,28,22.09,28,34.61Z"/><path class="cls-8" d="M66.54,23.53C61.2,8,45.72,11.92,45.72,11.92S30.22,8,24.88,23.53c-4.8,13.93,3.17,25.93,9.59,31,0,0-2.26-13.17.54-22.78a57.49,57.49,0,0,0,10.71-7.64,56.68,56.68,0,0,0,10.71,7.64c2.78,9.61.52,22.78.52,22.78C63.39,49.46,71.34,37.46,66.54,23.53Z"/></g></g></g></svg>