<svg xmlns="http://www.w3.org/2000/svg" xmlns:xlink="http://www.w3.org/1999/xlink" viewBox="0 0 91.43 91.43"><defs><style>.cls-1{fill:none;}.cls-2{clip-path:url(#clip-path);}.cls-3{fill:#fdc00f;}.cls-4{fill:#fee69f;}.cls-5{opacity:0.1;}.cls-6,.cls-8{fill:#fff;}.cls-6{opacity:0.4;}.cls-7{fill:#8f6c08;}</style><clipPath id="clip-path"><circle class="cls-1" cx="45.71" cy="45.71" r="45.71"/></clipPath></defs><title>Asset 8</title><g id="Layer_2" data-name="Layer 2"><g id="Layer_1-2" data-name="Layer 1"><g class="cls-2"><circle class="cls-3" cx="45.71" cy="45.71" r="45.71"/><path class="cls-4" d="M55,62.6,53.66,47.35H37.76L36.43,62.6A27.42,27.42,0,0,0,55,62.6Z"/><path class="cls-5" d="M54.63,58.31l-1-11H37.76l-1,11c2.62,2.55,5.66,4.11,8.91,4.11S52,60.85,54.63,58.31Z"/><path class="cls-4" d="M63.06,39.44c-1.31-.8-3.22.74-4.28,3.45s-.85,5.54.45,6.35,3.22-.75,4.27-3.45S64.36,40.24,63.06,39.44Z"/><path class="cls-4" d="M28.37,39.44c1.31-.8,3.22.74,4.28,3.45s.85,5.54-.45,6.35-3.22-.75-4.28-3.45S27.07,40.24,28.37,39.44Z"/><path class="cls-4" d="M63.43,34.61c0,12.53-7.93,26.67-17.72,26.67S28,47.14,28,34.61s7.93-18.69,17.71-18.69S63.43,22.09,63.43,34.61Z"/><path class="cls-6" d="M28,34.61c0,12.53,7.93,26.67,17.71,26.67V15.92C35.93,15.92,28,22.09,28,34.61Z"/><path class="cls-7" d="M77.39,72.08c-2.66-3.44-14.08-5-19.35-5.49l-1.57-.13a1.4,1.4,0,0,1-1.23-1.24L55,62.6a27.45,27.45,0,0,1-18.58,0l-.23,2.62A1.43,1.43,0,0,1,35,66.46l-1.55.13c-5.28.54-16.71,2-19.36,5.49-3,3.83,0,19.35,0,19.35H77.39S80.36,75.91,77.39,72.08Z"/><path class="cls-8" d="M38.87,18.23c0,1.9,3.06,4.59,6.84,4.59s6.85-2.69,6.85-4.59-3.06-3.06-6.84-3.06S38.87,16.32,38.87,18.23Z"/><path class="cls-8" d="M59.13,25.38c.56,3.82,2.56,5.7,3,7.72s.38,8.15.38,8.15h.35a33.32,33.32,0,0,0,.71-6.7c0-5.27.1-12.49-3.74-12.46C58.92,22.09,58.91,23.92,59.13,25.38Z"/><path class="cls-8" d="M29.26,33.1c.48-2,2.48-3.9,3-7.72.22-1.46.21-3.29-.74-3.29-3.85,0-3.74,7.19-3.74,12.46a33.32,33.32,0,0,0,.71,6.7h.35S28.76,35.16,29.26,33.1Z"/></g></g></g></svg>