<svg xmlns="http://www.w3.org/2000/svg" xmlns:xlink="http://www.w3.org/1999/xlink" viewBox="0 0 91.43 91.43"><defs><style>.cls-1{fill:none;}.cls-2{clip-path:url(#clip-path);}.cls-3{fill:#8fc3d8;}.cls-4{fill:#fc611f;}.cls-5,.cls-7{fill:#fff;}.cls-6{fill:#fee69f;}.cls-7{opacity:0.4;}.cls-8{opacity:0.1;}.cls-9{fill:#8f6c08;}</style><clipPath id="clip-path"><circle class="cls-1" cx="45.71" cy="45.71" r="45.71"/></clipPath></defs><title>Asset 6</title><g id="Layer_2" data-name="Layer 2"><g id="Layer_1-2" data-name="Layer 1"><g class="cls-2"><circle class="cls-3" cx="45.71" cy="45.71" r="45.71"/><path class="cls-4" d="M14,91.43H77.39s3-15.53,0-19.35c-3.48-4.51-22-5.72-22-5.72H36.09S17.52,67.57,14,72.08C11.08,75.9,14,91.43,14,91.43Z"/><path class="cls-5" d="M45.71,66.36H36.09S36.15,75,45.71,82c9.57-7.08,9.63-15.68,9.63-15.68Z"/><path class="cls-6" d="M63.06,39.44c-1.31-.8-3.22.74-4.28,3.45s-.85,5.54.45,6.34,3.22-.74,4.27-3.44S64.36,40.24,63.06,39.44Z"/><path class="cls-6" d="M28.37,39.44c1.31-.8,3.22.74,4.28,3.45s.85,5.54-.45,6.34-3.22-.74-4.28-3.44S27.07,40.24,28.37,39.44Z"/><path class="cls-6" d="M53.67,47.34H37.76l-1.67,19c0,2.1,4.31,3.81,9.62,3.81s9.63-1.71,9.63-3.81Z"/><path class="cls-6" d="M63.43,34.61c0,12.52-7.93,26.67-17.72,26.67S28,47.13,28,34.61s7.93-18.69,17.71-18.69S63.43,22.08,63.43,34.61Z"/><path class="cls-7" d="M45.71,15.92C35.93,15.92,28,22.08,28,34.61s7.93,26.67,17.71,26.67Z"/><path class="cls-8" d="M45.71,61.28c-3.21,0-6.22-1.54-8.82-4l-.09,1c2.62,2.54,5.66,4.12,8.91,4.12s6.3-1.57,8.92-4.11l-.09-1.06A12.86,12.86,0,0,1,45.71,61.28Z"/><path class="cls-9" d="M62.45,27.49,62.31,27a12.46,12.46,0,0,0-.44-1.33c-.11-.28-.24-.59-.38-.93L61,23.69a15.5,15.5,0,0,0-1.6-2.38A15.32,15.32,0,0,0,56.91,19,14.82,14.82,0,0,0,53.64,17a17.62,17.62,0,0,0-3.89-1.21,21.56,21.56,0,0,0-4.19-.37,23.41,23.41,0,0,0-4.16.44,19.54,19.54,0,0,0-3.87,1.29,15.74,15.74,0,0,0-3.22,2c-.48.37-.89.8-1.31,1.19s-.77.81-1.07,1.24A13.39,13.39,0,0,0,30.39,24c-.18.38-.37.73-.51,1.07l-.36.94a12.52,12.52,0,0,0-.41,1.34c-.09.31-.13.48-.13.48a3.55,3.55,0,0,1,.38-.62,7.64,7.64,0,0,0,1.34,1.94,3.59,3.59,0,0,1,.7-1.6,7.86,7.86,0,0,0,1.38,1.91,3.8,3.8,0,0,1,.66-1.62,8.2,8.2,0,0,0,1.42,1.89,3.86,3.86,0,0,1,.63-1.64A7.94,7.94,0,0,0,37,30a3.7,3.7,0,0,1,.59-1.64A8,8,0,0,0,39,30.14a3.72,3.72,0,0,1,.56-1.66,7.77,7.77,0,0,0,1.54,1.79,3.58,3.58,0,0,1,.52-1.67,7.71,7.71,0,0,0,1.57,1.75,3.71,3.71,0,0,1,.48-1.68,8.31,8.31,0,0,0,1.62,1.71,3.77,3.77,0,0,1,.44-1.69,8.09,8.09,0,0,0,1.66,1.68,3.68,3.68,0,0,1,.4-1.7,8,8,0,0,0,1.69,1.64,3.74,3.74,0,0,1,.37-1.71,7.84,7.84,0,0,0,1.73,1.6A3.68,3.68,0,0,1,52,28.48a7.8,7.8,0,0,0,1.76,1.57,3.7,3.7,0,0,1,.3-1.72,7.78,7.78,0,0,0,1.79,1.52,3.76,3.76,0,0,1,.26-1.73,7.59,7.59,0,0,0,1.83,1.49,3.69,3.69,0,0,1,.22-1.74A7.56,7.56,0,0,0,60,29.32a3.82,3.82,0,0,1,.18-1.74A7.77,7.77,0,0,0,62,29a3.88,3.88,0,0,1,.15-1.75Z"/></g></g></g></svg>