<svg xmlns="http://www.w3.org/2000/svg" xmlns:xlink="http://www.w3.org/1999/xlink" viewBox="0 0 91.43 91.43"><defs><style>.cls-1{fill:none;}.cls-2{clip-path:url(#clip-path);}.cls-3{fill:#8fc3d8;}.cls-4,.cls-6{fill:#fff;}.cls-5{fill:#fee69f;}.cls-6{opacity:0.4;}.cls-7{opacity:0.1;}.cls-8{fill:#303030;}.cls-9{fill:#595959;}.cls-10{fill:#bfbfbf;}</style><clipPath id="clip-path"><path class="cls-1" d="M91.43,45.71A45.72,45.72,0,1,1,45.71,0,45.72,45.72,0,0,1,91.43,45.71Z"/></clipPath></defs><title>Asset 5</title><g id="Layer_2" data-name="Layer 2"><g id="Layer_1-2" data-name="Layer 1"><g class="cls-2"><path class="cls-3" d="M91.43,45.71A45.72,45.72,0,1,1,45.71,0,45.72,45.72,0,0,1,91.43,45.71Z"/><path class="cls-4" d="M55.61,66.4l-9.89,3.84-9.9-3.84c-.65,0-2,.15-2.42.2l3.4,24.83H54.63L58,66.6C57.58,66.55,56.26,66.45,55.61,66.4Z"/><path class="cls-5" d="M55.61,66.4l-.37,0-1.57-19H37.76l-1.57,19-.37,0,9.9,3.84Z"/><path class="cls-5" d="M63.06,39.44c-1.31-.8-3.22.74-4.28,3.45s-.85,5.54.45,6.34,3.22-.74,4.27-3.44S64.36,40.24,63.06,39.44Z"/><path class="cls-5" d="M28.37,39.44c1.31-.8,3.22.74,4.28,3.45s.85,5.54-.45,6.34-3.22-.74-4.28-3.44S27.07,40.24,28.37,39.44Z"/><path class="cls-5" d="M63.43,34.61c0,12.53-7.93,26.67-17.72,26.67S28,47.14,28,34.61s7.93-18.69,17.71-18.69S63.43,22.09,63.43,34.61Z"/><path class="cls-6" d="M45.71,15.92C35.93,15.92,28,22.09,28,34.61s7.93,26.67,17.71,26.67Z"/><path class="cls-7" d="M45.71,61.28a12.86,12.86,0,0,1-8.82-4l-.09,1c2.62,2.54,5.66,4.12,8.91,4.12s6.3-1.56,8.92-4.11l-.09-1.06A12.86,12.86,0,0,1,45.71,61.28Z"/><path class="cls-8" d="M33.4,66.6l3.4,24.83H14s-3-15.53,0-19.35C16.7,68.64,28.12,67.12,33.4,66.6Zm44,5.48c-2.66-3.44-14.08-5-19.36-5.48l-3.4,24.83H77.39S80.35,75.9,77.39,72.08Z"/><path class="cls-9" d="M60.27,91.43l8.24-16.7H66.4l1.88-2.65L60.5,66.87c-.91-.11-1.75-.2-2.47-.27l-3.4,24.83Z"/><path class="cls-9" d="M33.4,66.6c-.72.07-1.56.16-2.47.27l-7.78,5.21L25,74.73H22.92l8.24,16.7H36.8Z"/><path class="cls-8" d="M64.51,29.86A20.42,20.42,0,0,0,63,24.21a16.83,16.83,0,0,0-3.86-5.48A17.19,17.19,0,0,0,53,15a21.84,21.84,0,0,0-3.58-.91c-.6-.08-1.21-.17-1.82-.23l-1.92-.08L44,13.85c-.6.05-1.27.15-1.89.23a21.7,21.7,0,0,0-3.59.91,17,17,0,0,0-10,9.22,20.42,20.42,0,0,0-1.53,5.65c-.07.89-.15,1.74-.17,2.54s.05,1.6.08,2.33c.17,1.36.31,2.53.5,3.51.49,2,.8,3.09.8,3.09l1.12-.22s0-1.12-.15-3c0-1,.07-2.17.07-3.52.08-.63.16-1.3.24-2s.25-1.35.39-2.05C32,25.7,36.33,21.12,43.65,24a6.52,6.52,0,0,0,4.14,0c7.32-2.84,11.67,1.74,13.84,6.6.14.69.27,1.34.39,2s.16,1.44.23,2.11c0,1.28.11,2.41.09,3.38-.13,2-.17,3.08-.17,3.08l1.13.18s.31-1.09.79-3c.19-1,.34-2.22.52-3.65,0-.7,0-1.44.07-2.22S64.59,30.76,64.51,29.86Z"/><path class="cls-8" d="M45.72,49.27a3.42,3.42,0,0,1,.47-.18,6.26,6.26,0,0,1,4.17.24,6.44,6.44,0,0,1,2.47,1.8,6.23,6.23,0,0,1,.66,1,2.78,2.78,0,0,1,.21.46,4.72,4.72,0,0,1-.47.17,6.45,6.45,0,0,1-1.15.23,6.28,6.28,0,0,1-3-.47,6.44,6.44,0,0,1-2.47-1.8,5.6,5.6,0,0,1-.66-1A3,3,0,0,1,45.72,49.27Z"/><path class="cls-8" d="M45.71,49.27a3,3,0,0,1-.21.45,5.6,5.6,0,0,1-.66,1,6.44,6.44,0,0,1-2.47,1.8,6.28,6.28,0,0,1-3,.47,6.45,6.45,0,0,1-1.15-.23,4.72,4.72,0,0,1-.47-.17,2.78,2.78,0,0,1,.21-.46,6.23,6.23,0,0,1,.66-1,6.45,6.45,0,0,1,5.49-2.26,6.36,6.36,0,0,1,1.15.22A3.42,3.42,0,0,1,45.71,49.27Z"/><path class="cls-4" d="M57.91,66.59l-2.3-.19-9.89,3.84,2.28,6,9.38-4.86Z"/><path class="cls-4" d="M33.52,66.59l2.3-.19,9.9,3.84-2.29,6-9.38-4.86Z"/><polygon class="cls-10" points="57.9 72.4 48.2 76.63 47.73 76.83 47.6 76.39 45.72 70.24 48.4 76.09 47.8 75.86 56.85 70.37 57.9 72.4"/><polygon class="cls-10" points="45.72 70.24 43.84 76.4 43.71 76.83 43.24 76.63 33.56 72.56 34.59 70.52 43.63 75.85 43.02 76.09 45.72 70.24"/><path class="cls-4" d="M33.52,66.59l2.3-.19,9.9,3.84-2.29,6-9.38-4.86Z"/><path class="cls-8" d="M58,66.6l8.64,5.77-2.49,3.5h2.49L59,91.43H54.63Zm-24.63,0-8.64,5.77,2.49,3.5H24.76l7.67,15.56H36.8Z"/><path class="cls-4" d="M57.91,66.59l-2.3-.19-9.89,3.84,2.28,6,9.38-4.86Z"/><polygon class="cls-10" points="45.72 70.24 46.29 91.43 45.15 91.43 45.72 70.24"/></g></g></g></svg>