<svg xmlns="http://www.w3.org/2000/svg" xmlns:xlink="http://www.w3.org/1999/xlink" viewBox="0 0 91.43 91.43"><defs><style>.cls-1{fill:none;}.cls-2{clip-path:url(#clip-path);}.cls-3{fill:#fc611f;}.cls-4{fill:#346178;}.cls-5{fill:#fee69f;}.cls-6{fill:#fff;opacity:0.4;}.cls-7{fill:#303030;}.cls-8{opacity:0.1;}</style><clipPath id="clip-path"><path class="cls-1" d="M91.43,45.71A45.72,45.72,0,1,1,45.71,0,45.72,45.72,0,0,1,91.43,45.71Z"/></clipPath></defs><title>Asset 7</title><g id="Layer_2" data-name="Layer 2"><g id="Layer_1-2" data-name="Layer 1"><g class="cls-2"><path class="cls-3" d="M91.43,45.71A45.72,45.72,0,1,1,45.71,0,45.72,45.72,0,0,1,91.43,45.71Z"/><path class="cls-4" d="M77.39,72.08c-2.66-3.44-14.08-5-19.35-5.49l-1.57-.13a1.4,1.4,0,0,1-1.23-1.24L53.66,47.35H37.76L36.2,65.22A1.43,1.43,0,0,1,35,66.46l-1.55.13c-5.28.54-16.71,2-19.36,5.49-3,3.83,0,19.35,0,19.35H77.39S80.36,75.91,77.39,72.08Z"/><path class="cls-5" d="M63.06,39.44c-1.31-.8-3.22.75-4.28,3.45s-.86,5.55.45,6.35,3.22-.75,4.27-3.45S64.36,40.24,63.06,39.44Z"/><path class="cls-5" d="M28.37,39.44c1.3-.8,3.22.75,4.28,3.45s.85,5.55-.45,6.35-3.22-.75-4.28-3.45S27.07,40.24,28.37,39.44Z"/><path class="cls-5" d="M63.43,34.61c0,12.53-7.93,26.67-17.72,26.67S28,47.14,28,34.61s7.94-18.69,17.72-18.69S63.43,22.09,63.43,34.61Z"/><path class="cls-6" d="M28,34.61c0,12.53,7.94,26.67,17.72,26.67V15.92C35.93,15.92,28,22.09,28,34.61Z"/><path class="cls-7" d="M63.37,30.06a21.23,21.23,0,0,0-1.59-5.26,15.83,15.83,0,0,0-3.65-5,16.41,16.41,0,0,0-5.69-3.35,20.82,20.82,0,0,0-3.31-.83c-.57-.07-1.16-.16-1.72-.21l-1.67-.08L44,15.43c-.57.05-1.15.14-1.72.21a20.55,20.55,0,0,0-3.31.83,16.46,16.46,0,0,0-5.7,3.35,15.79,15.79,0,0,0-3.64,5,20.41,20.41,0,0,0-1.59,5.26c-.1.84-.2,1.65-.26,2.41s0,1.51,0,2.2c.13,1.36.19,2.54.32,3.51.38,1.93.59,3,.59,3l1.59.31s-3-14.21,5.81-18.57a10.82,10.82,0,0,1,7.48-.79,10,10,0,0,0,4.28,0,10.81,10.81,0,0,1,7.48.79c8.85,4.36,5.81,18.57,5.81,18.57l1.6-.31.58-3c.14-1,.2-2.15.32-3.51,0-.69,0-1.42,0-2.2S63.47,30.9,63.37,30.06Z"/><path class="cls-7" d="M37.31,55.55l.06-.47a7.5,7.5,0,0,1,.4-1.55,7.82,7.82,0,0,1,1.16-2,9.39,9.39,0,0,1,2.18-2,8.86,8.86,0,0,1,3.15-1.32,7.87,7.87,0,0,1,3.81.18,9,9,0,0,1,3.5,2.13,8.33,8.33,0,0,1,2.28,3.73,7.08,7.08,0,0,1,.21,1.15,2.28,2.28,0,0,1,0,.36V56a2.7,2.7,0,0,1,0,.55A5.37,5.37,0,0,1,53.24,59a7.18,7.18,0,0,1-3.72,2.8,12.25,12.25,0,0,1-4,.66,10.88,10.88,0,0,1-1.84-.14,9.53,9.53,0,0,1-1.73-.44,7.5,7.5,0,0,1-2.82-1.7,6,6,0,0,1-1.48-2.25,5.62,5.62,0,0,1-.33-1.68v-.66Zm2.4.07s0,.12,0,.35a3.65,3.65,0,0,0,.31.89,2.9,2.9,0,0,0,1,1,5.88,5.88,0,0,0,1.88.78,10.73,10.73,0,0,0,1.25.23A13.07,13.07,0,0,0,45.6,59a10.36,10.36,0,0,0,3-.28A4.89,4.89,0,0,0,51,57.38a2.87,2.87,0,0,0,.62-1.13,3.71,3.71,0,0,0,.12-.79,5.25,5.25,0,0,0,0-.79,6.43,6.43,0,0,0-1.35-3.09,6.54,6.54,0,0,0-2.73-2A5.51,5.51,0,0,0,42,50.61a6.92,6.92,0,0,0-2.13,3.56,5.47,5.47,0,0,0-.12,1c0,.3,0,.47,0,.47Z"/><path class="cls-8" d="M53.72,58a5.15,5.15,0,0,1-.48,1,7.18,7.18,0,0,1-3.72,2.8,12.25,12.25,0,0,1-4,.66,10.88,10.88,0,0,1-1.84-.14,9.53,9.53,0,0,1-1.73-.44,7.5,7.5,0,0,1-2.82-1.7A6.09,6.09,0,0,1,37.67,58c-.26-.22-.52-.46-.78-.7l-.09,1c.29.28.57.55.87.8a5.93,5.93,0,0,0,1.45,2.18A7.5,7.5,0,0,0,41.94,63a8.77,8.77,0,0,0,1.73.44,10.94,10.94,0,0,0,1.84.15,12.26,12.26,0,0,0,4-.67,7.15,7.15,0,0,0,3.72-2.79,5.55,5.55,0,0,0,.48-1c.31-.26.61-.54.91-.83l-.1-1C54.27,57.51,54,57.76,53.72,58Z"/></g></g></g></svg>