<svg xmlns="http://www.w3.org/2000/svg" xmlns:xlink="http://www.w3.org/1999/xlink" viewBox="0 0 176.72 436.35"><defs><style>.cls-1{isolation:isolate;}.cls-2{fill:#6b99d1;opacity:0.15;mix-blend-mode:multiply;}.cls-3{fill:url(#Degradado_sin_nombre_33);}.cls-4{fill:url(#Degradado_sin_nombre_20);}.cls-5{fill:#dceeff;}.cls-6{fill:#fff;}.cls-7{opacity:0.3;fill:url(#linear-gradient);}.cls-8{fill:#50b3f2;}.cls-11,.cls-8{opacity:0.5;}.cls-11,.cls-9{fill:#80c3ed;}.cls-10,.cls-9{opacity:0.7;}</style><linearGradient id="Degradado_sin_nombre_33" x1="13.98" y1="380.06" x2="175.94" y2="380.06" gradientUnits="userSpaceOnUse"><stop offset="0" stop-color="#6b99d1"/><stop offset="0.02" stop-color="#6e9bd3"/><stop offset="0.24" stop-color="#86b0e4"/><stop offset="0.46" stop-color="#97bff0"/><stop offset="0.71" stop-color="#a2c8f8"/><stop offset="1" stop-color="#a5cbfa"/></linearGradient><linearGradient id="Degradado_sin_nombre_20" x1="29.51" y1="351.36" x2="160.39" y2="351.36" gradientUnits="userSpaceOnUse"><stop offset="0" stop-color="#a5cbfa"/><stop offset="0.36" stop-color="#a8cdfa"/><stop offset="0.67" stop-color="#b3d4fc"/><stop offset="0.95" stop-color="#c4dffe"/><stop offset="1" stop-color="#c8e2ff"/></linearGradient><linearGradient id="linear-gradient" x1="94.95" y1="372.22" x2="94.95" y2="-2.25" gradientUnits="userSpaceOnUse"><stop offset="0" stop-color="#0d88d6"/><stop offset="0.69" stop-color="#0d88d6" stop-opacity="0.29"/><stop offset="1" stop-color="#0d88d6" stop-opacity="0"/></linearGradient></defs><g class="cls-1"><g id="Layer_2" data-name="Layer 2"><g id="Layer_1-2" data-name="Layer 1"><path class="cls-2" d="M37.14,355.76c-31.93,18.44-31.93,48.33,0,66.76s83.7,18.44,115.63,0,31.93-48.32,0-66.76S69.07,337.32,37.14,355.76Z"/><path class="cls-3" d="M161.53,353.46l-1.14-2.11h-1.56a60.51,60.51,0,0,0-6.61-4.36c-31.64-18.25-82.9-18.25-114.54,0A71.31,71.31,0,0,0,31,351.35H29.5l-1.14,2.14C23,363.41,14,376.81,14,380c-.05,12,7.86,24,23.7,33.15,31.64,18.26,82.9,18.26,114.54,0C168,404,175.94,392,175.94,380.06,175.94,376.19,168.37,362.57,161.53,353.46Z"/><path class="cls-4" d="M152,332.92a49.13,49.13,0,0,0-10.78-8.28c-25.56-14.75-67-14.75-92.55,0a49.2,49.2,0,0,0-10.79,8.28H29.51v18.44h0c0,9.67,6.39,19.34,19.17,26.71,25.56,14.76,67,14.76,92.55,0,12.78-7.37,19.16-17,19.16-26.71V332.92Z"/><path class="cls-5" d="M48.68,308.49c-25.56,14.76-25.56,38.68,0,53.43s67,14.76,92.55,0,25.55-38.67,0-53.43S74.24,293.74,48.68,308.49Z"/><path class="cls-6" d="M95,298.43c17.31,0,33.57,3.88,45.78,10.93,12,6.95,18.66,16.13,18.66,25.85s-6.63,18.9-18.66,25.85C128.52,368.11,112.26,372,95,372s-33.56-3.88-45.77-10.93c-12-6.95-18.67-16.13-18.67-25.85s6.63-18.9,18.67-25.85c12.21-7.05,28.47-10.93,45.77-10.93m0-1c-16.74,0-33.49,3.68-46.27,11.06-25.56,14.76-25.56,38.68,0,53.43C61.46,369.3,78.21,373,95,373s33.5-3.69,46.28-11.07c25.55-14.75,25.55-38.67,0-53.43-12.78-7.38-29.53-11.06-46.28-11.06Z"/><path class="cls-7" d="M29.5,335.2c0,9.66,6.41,19.34,19.17,26.71,25.57,14.76,67,14.76,92.56,0,12.76-7.37,19.16-17.05,19.16-26.71V0H29.51Z"/><path class="cls-8" d="M27.8,260.44A71,71,0,0,1,12,248.4C4.19,240.31.17,231.31,0,222.31v53.43c.26,13.81,9.54,27.59,27.8,38.13,11.25,6.49,24.63,11,38.84,13.56V274C52.43,271.47,39.05,266.94,27.8,260.44Z"/><path class="cls-8" d="M148.52,285.31a71.06,71.06,0,0,0,15.78-12.05c7.83-8.09,11.84-17.09,12-26.09V300.6c-.25,13.81-9.54,27.6-27.79,38.14-11.25,6.49-24.64,11-38.85,13.55V298.86C123.88,296.33,137.27,291.8,148.52,285.31Z"/><path class="cls-8" d="M124.14,244.44v65.1a158.45,158.45,0,0,1-56.79.29c-13.84-2.48-26.88-6.89-37.85-13.22a74.13,74.13,0,0,1-7.77-5.12V226.41a77.36,77.36,0,0,0,7.77,5.1c11,6.35,24,10.74,37.85,13.21A158.68,158.68,0,0,0,124.14,244.44Z"/><path class="cls-9" d="M74.81,258.08v25.6a158.56,158.56,0,0,0,33.75.69V258.76A158.56,158.56,0,0,1,74.81,258.08Z"/><path class="cls-8" d="M162.53,183.35a51.67,51.67,0,0,1-6.18,5.41c-1.31,1-2.7,1.94-4.16,2.85-.82.54-1.65,1-2.53,1.54A97.77,97.77,0,0,1,119.36,204a123.88,123.88,0,0,1-16.44,2v60.09a123.88,123.88,0,0,0,16.44-2,97.23,97.23,0,0,0,30.3-10.79,72.37,72.37,0,0,0,6.69-4.39,52.74,52.74,0,0,0,6.18-5.44c5.33-5.5,8.46-11.48,9.46-17.57V165.78C171,171.88,167.86,177.86,162.53,183.35Z"/><g class="cls-10"><path class="cls-11" d="M135.59,213.08v34.38c-2.62.94-5.3,1.76-8.06,2.5V215.59C130.29,214.85,133,214,135.59,213.08Z"/><path class="cls-11" d="M151.05,205.82V240.2c-.45.28-.91.57-1.39.82a73.34,73.34,0,0,1-6.67,3.42V210.06a73.27,73.27,0,0,0,6.67-3.41C150.14,206.39,150.6,206.11,151.05,205.82Z"/><path class="cls-11" d="M166.49,192.1v34.37a37.34,37.34,0,0,1-4,4.75,49.85,49.85,0,0,1-4.1,3.76V200.61a51.69,51.69,0,0,0,4.1-3.76A38.05,38.05,0,0,0,166.49,192.1Z"/></g><path class="cls-8" d="M116.05,153.19v69.29a123.74,123.74,0,0,1-13.13,1.45,131.25,131.25,0,0,1-31-1.79c-1.76-.31-3.5-.68-5.24-1.08V151.77c1.74.4,3.48.77,5.24,1.08a131.25,131.25,0,0,0,31,1.79A123.74,123.74,0,0,0,116.05,153.19Z"/><path class="cls-8" d="M161.48,112v56.36a68.06,68.06,0,0,0-10.85-7.69c-15.44-8.88-35.4-13.61-55.65-14.09V93.1c21.47,0,42.89,4.73,59.26,14.15A72,72,0,0,1,161.48,112Z"/><path class="cls-8" d="M69.92,120.86c-1.91-.31-3.79-.73-5.67-1.15A103,103,0,0,1,42,112.25s0,0,0,0c-2.2-1-4.28-2.09-6.33-3.25-.94-.57-1.88-1.11-2.74-1.68s-1.71-1.07-2.54-1.64c-.6-.43-1.2-.85-1.8-1.31a.17.17,0,0,1-.14-.11,54.6,54.6,0,0,1-6.77-5.85C14.7,91.28,11.15,83.35,11,75.4l.17,60.6v1.17c.16,8,3.71,15.88,10.63,23A53.77,53.77,0,0,0,28.55,166c0,.06.09.14.14.14,1.37,1,2.77,2,4.34,3,.86.54,1.8,1.11,2.74,1.65,2,1.16,4.13,2.26,6.33,3.26,0,0,0,0,0,0a103,103,0,0,0,22.29,7.45c1.88.45,3.76.85,5.67,1.18,4.42.79,8.92,1.34,13.45,1.7l-.17-61.77C78.84,122.23,74.34,121.65,69.92,120.86Z"/><path class="cls-9" d="M37.08,119.33c-6.23-2.46-13.51,3.43-13.2,10.62s1.55,16.1,12.64,22.47c12.24,7,17.91-2.51,17.46-10.92C53.48,132.3,48,123.64,37.08,119.33Z"/></g></g></g></svg>