<svg xmlns="http://www.w3.org/2000/svg" xmlns:xlink="http://www.w3.org/1999/xlink" viewBox="0 0 317.48 483.53"><defs><style>.cls-1{isolation:isolate;}.cls-2{fill:#ffa8a7;}.cls-3{fill:#e4f2f2;}.cls-4{fill:#2d2979;}.cls-5{fill:#7fa8e6;}.cls-6{fill:#597bc6;}.cls-7{fill:#f28f8f;}.cls-8{fill:#f5fbfb;}.cls-9{fill:#c8dbda;}.cls-10{fill:#543354;}.cls-11{fill:#6b99d1;opacity:0.15;mix-blend-mode:multiply;}.cls-12{fill:#dceeff;}.cls-13{fill:#a5cbfa;}.cls-14{fill:#c8e2ff;}.cls-15{fill:#fff;}.cls-16{fill:#344593;}.cls-17{fill:#1e3779;}.cls-18{fill:#031f60;}.cls-19{fill:#022caf;}.cls-20{fill:#0d88d6;}.cls-21{fill:url(#linear-gradient);}.cls-22{fill:url(#linear-gradient-2);}.cls-23{fill:url(#linear-gradient-3);}.cls-24{fill:url(#linear-gradient-4);}.cls-25{fill:url(#linear-gradient-5);}.cls-26{fill:url(#linear-gradient-6);}.cls-27{fill:url(#linear-gradient-7);}.cls-28{fill:url(#linear-gradient-8);}.cls-29{fill:url(#linear-gradient-9);}.cls-30{fill:url(#linear-gradient-10);}.cls-31{fill:url(#linear-gradient-11);}.cls-32{fill:url(#linear-gradient-12);}.cls-33,.cls-34{opacity:0.3;}.cls-33{fill:url(#linear-gradient-13);}.cls-34{fill:url(#linear-gradient-14);}</style><linearGradient id="linear-gradient" x1="127.69" y1="124.45" x2="200.55" y2="124.45" gradientUnits="userSpaceOnUse"><stop offset="0" stop-color="#022caf"/><stop offset="1" stop-color="#0d88d6"/></linearGradient><linearGradient id="linear-gradient-2" x1="164.11" y1="201.59" x2="164.12" y2="201.59" xlink:href="#linear-gradient"/><linearGradient id="linear-gradient-3" x1="164.12" y1="134.97" x2="200.55" y2="134.97" xlink:href="#linear-gradient"/><linearGradient id="linear-gradient-4" x1="188.43" y1="173.53" x2="261.28" y2="173.53" xlink:href="#linear-gradient"/><linearGradient id="linear-gradient-5" x1="224.85" y1="243.65" x2="224.86" y2="243.65" xlink:href="#linear-gradient"/><linearGradient id="linear-gradient-6" x1="224.86" y1="184.05" x2="261.28" y2="184.05" xlink:href="#linear-gradient"/><linearGradient id="linear-gradient-7" x1="66.95" y1="159.51" x2="139.81" y2="159.51" xlink:href="#linear-gradient"/><linearGradient id="linear-gradient-8" x1="103.38" y1="236.65" x2="103.39" y2="236.65" xlink:href="#linear-gradient"/><linearGradient id="linear-gradient-9" x1="103.39" y1="170.03" x2="139.81" y2="170.03" xlink:href="#linear-gradient"/><linearGradient id="linear-gradient-10" x1="127.7" y1="222.61" x2="200.56" y2="222.61" xlink:href="#linear-gradient"/><linearGradient id="linear-gradient-11" x1="164.12" y1="285.73" x2="164.14" y2="285.73" xlink:href="#linear-gradient"/><linearGradient id="linear-gradient-12" x1="164.14" y1="233.13" x2="200.56" y2="233.13" xlink:href="#linear-gradient"/><linearGradient id="linear-gradient-13" x1="282.62" y1="274.49" x2="188.12" y2="108.04" gradientUnits="userSpaceOnUse"><stop offset="0" stop-color="#0d88d6"/><stop offset="0.69" stop-color="#0d88d6" stop-opacity="0.29"/><stop offset="1" stop-color="#0d88d6" stop-opacity="0"/></linearGradient><linearGradient id="linear-gradient-14" x1="45.77" y1="275.2" x2="121.56" y2="140.41" xlink:href="#linear-gradient-13"/></defs><g class="cls-1"><g id="Layer_2" data-name="Layer 2"><g id="Layer_1-2" data-name="Layer 1"><path class="cls-2" d="M125,156.92c-2.61.19-4.94-.63-8.59-.08a27.41,27.41,0,0,1-8.34.31c-3-.37-11.26-6.65-17.91-12.56-7.85-7-15-17.52-17-23-3.5-9.31-8.89-28.51-11.41-34.94S55.87,79,51.86,78.39c-4.72-.66-7.76,1.21-5.28,10.87s7.9,28.09,14.53,40a92.43,92.43,0,0,0,19.2,23.49c7,6.29,13.53,10,21.78,14.51,2.25,1.24,3.61,2.72,7.62,5.59s9.33,5.22,13.44,5.6,5.65-.14,6.09-.93c.55-1-.16-1.82-2-2.21a25.17,25.17,0,0,1-8.55-2.75s4,1.05,6.48,1.47a24.63,24.63,0,0,0,6.63.23c2.13-.25,3.63-3.05,1.78-3.49s-3.43-.27-7.06-.94a24.37,24.37,0,0,1-5.61-1.7,46.36,46.36,0,0,0,7.39.32c3.42-.2,4.78-1,5.66-1.55s1.22-2.44-1.16-2.68c-2.14-.21-4.94.44-9-.59-2.92-.76-4.88-1.69-4.38-2s2.19.22,4.75-.37,4.52-2.57,4.1-3.92S127.56,156.74,125,156.92Z"/><path class="cls-3" d="M63.65,90c-1.61-5.3-2.85-7.82-6-10.06a10,10,0,0,0-5.91-2l-6.86,30.33,6.86,15.55c10.79,2.76,19.77-8.69,19.77-8.69S65.12,94.9,63.65,90Z"/><path class="cls-4" d="M27.51,317.11a39.06,39.06,0,0,1-1.6,4.63c-.9,2.06-1.93,5.53-1.8,7.33S28,334,30.66,334.73s6.52,4.34,7.79,6.56c1.81,3.17,7.45,6.17,11.36,6.3s8.37-.13,9.53-1.54.13-3.35-7.07-10.29-12.09-11.23-13.83-16.93Z"/><path class="cls-4" d="M8,338.42c-.85,2.19-2.47,3.42-2,9.19s-.06,8.06-.63,12.77,1.83,11.17,4.09,14.18,8.41,3.64,10.37-1.71,2.42-9.87,1.05-15.25.45-9.49-.45-13.1a31,31,0,0,0-2.18-6.08Z"/><path class="cls-5" d="M8,189.87c.19,6,2.07,32.29,2.92,46.18S13,266.11,13,266.11A153,153,0,0,0,8,289c-1.55,11.9,0,49.44,0,49.44a9.46,9.46,0,0,0,10.23,0s7.06-33.08,10-46.61,6-19.95,6.62-28.46,3.6-55.76,3.6-55.76l1.6.09L44,250.87a70.17,70.17,0,0,0-7.41,16.84c-2.19,8.52-9.09,49.4-9.09,49.4s4.83,5.43,10.93,1.72c0,0,24-54.93,26.21-60.34s-1-82.86-1-82.86Z"/><path class="cls-6" d="M38.5,207.59s10.87-4,15.76-7.8c0,0-2.8,4.3-9.52,7.84-.56,5.69-.73,43.24-.73,43.24L40.1,207.68Z"/><path class="cls-2" d="M22.51,73.08s.68,13.18.39,14.35-6,5-7.72,6.41,9.1,12,14.35,14.43,21.86-3.94,22.15-12.1-2.84-15-5.39-15.37S22.51,73.08,22.51,73.08Z"/><path class="cls-7" d="M22.51,73l.39,9.13s8.4,8,15.1,6.76c3.73-.67,3.35-3.12,3.35-3.12V78.12Z"/><path class="cls-8" d="M21,89.39s9.56,14.25,22.9,15.59c4.21-4.14,4.59-18.9-1.23-23.61,0,0,5.35-4.32,9-3.48A18.91,18.91,0,0,1,59.94,88.4a86.15,86.15,0,0,1,4.7,30.49c-.23,14,0,56.68,0,56.68s-1.87,9-13.93,15.76-21,7.38-29.21,5.47c-6.76-1.58-12.33-4-14.66-8.86.6-9.79,5-35.36,3.34-47.68S6,118.74,5.28,108.78,6.59,99,11.59,95.47A79.73,79.73,0,0,1,21,89.39Z"/><path class="cls-3" d="M43.92,105a74.9,74.9,0,0,0,1.15-9.74c-.31-4.57-3.71-10.53-3.71-10.53V81a8.71,8.71,0,0,1,4.88,3.18c2.24,2.75,5.68,8.69,4.83,14.5C51.07,98.7,49.37,102.09,43.92,105Z"/><path class="cls-8" d="M43.92,105c1-1.88,2.82-8.22,3.72-9.16,1.76-.58,3.43,2.88,3.43,2.88s-.06,3.68-2.27,5.77A4.21,4.21,0,0,1,43.92,105Z"/><path class="cls-9" d="M47.64,95.82c-.9.94-2.75,7.28-3.72,9.16a31.3,31.3,0,0,1,2-3c1-1.27,2.19-3.7,5.13-3.23C51.07,98.7,49.4,95.24,47.64,95.82Z"/><path class="cls-2" d="M52.33,53.45h0c-1.57-10.23-8.94-18-19.49-17.4a20.28,20.28,0,0,0-10.33,37s1,3.7,1.63,4.47c3.74,4.37,15,7.06,18.26,6.6,4.16-.6,6.41-2.33,8.4-6.88C54.3,69.24,53.2,58.5,52.33,53.45Z"/><path class="cls-10" d="M50.8,45.2a20.1,20.1,0,0,0-21.08-8.73A20.33,20.33,0,0,0,17,45.25c-4.41,1.57-4.85,4.87-4.31,10.24.57,5.67,1.68,11.15,4.44,15.95C18,73,20.9,72,22.51,73.08c-.22-.69-5.54-8.64-.06-10.4a6.65,6.65,0,0,1,1.14,4.17s2.71-.25,2.1-3.43L25.22,61a9.33,9.33,0,0,1,1.56-7,8.22,8.22,0,0,0,1.43-6.64,27.22,27.22,0,0,0,15.44,1.19C47.3,47.71,49.78,46.33,50.8,45.2Z"/><path class="cls-10" d="M17,45.25s-1.26-4,3.92-8c6.16-4.68,14.83-3.64,24,0,5.84,2.32,14.9-.53,13.14,6.17-2.57,9.81-21.52,10.65-29.77,3.82C27.62,47.1,21.64,44.2,17,45.25Z"/><path class="cls-2" d="M22.51,73S22,74.1,20.06,74.19c-3.7.19-8-6.69-5-11.36,1.87-2.91,6.08-1.89,7.44-.15Z"/><path class="cls-3" d="M23,84.8c.25,2,11,10,13.53,11S43.92,105,43.92,105c-3.82-.65-7,.91-9.75,3.8,0,0-15.23-6.4-17.7-16.65,0,0,2.84-5.49,3.27-6.89s1.57-3,3.16-3.1Z"/><path class="cls-8" d="M34.17,108.78s1.13-7.85,2.77-8.57,7,4.77,7,4.77A14.61,14.61,0,0,1,34.17,108.78Z"/><path class="cls-9" d="M36.94,100.21c-1.64.72-2.77,8.57-2.77,8.57s4.28-3.92,5.6-4.31,4.15.51,4.15.51S38.57,99.5,36.94,100.21Z"/><path class="cls-11" d="M314.25,399.48l-142.34,82.2a17.26,17.26,0,0,1-15.55,0L14,399.48c-2.16-1.22-3.23-2.84-3.23-4.48a4.58,4.58,0,0,1,1.7-3.38,7.33,7.33,0,0,1,1.53-1.1l142.34-82.17c4.28-2.48,11.24-2.48,15.55,0l142.34,82.17C318.53,393,318.53,397,314.25,399.48Z"/><path class="cls-12" d="M314.25,304.25,171.91,386.41a17.33,17.33,0,0,1-15.52,0L14,304.25c-2.16-1.26-3.23-2.87-3.23-4.49s1.07-3.26,3.23-4.48l22.6-13,119.74-69.15c4.28-2.48,11.24-2.48,15.55,0l142.34,82.19C318.53,297.73,318.53,301.77,314.25,304.25Z"/><path class="cls-13" d="M164.13,355.85v32.41a15.86,15.86,0,0,1-7.74-1.82L14,304.25c-2.16-1.26-3.23-2.87-3.23-4.49V271.69a4.58,4.58,0,0,1,1.7-3.38l24.13,13.93Z"/><path class="cls-14" d="M164.13,355.85v32.41a15.93,15.93,0,0,0,7.75-1.82l142.37-82.19c2.16-1.26,3.23-2.87,3.23-4.49V271.69a4.58,4.58,0,0,0-1.7-3.38l-24.13,13.93Z"/><path class="cls-12" d="M314.25,276.17l-142.34,82.2a17.26,17.26,0,0,1-15.55,0L14,276.17c-2.16-1.22-3.23-2.84-3.23-4.48a4.58,4.58,0,0,1,1.7-3.38A7.73,7.73,0,0,1,14,267.2L156.36,185c4.28-2.48,11.24-2.48,15.55,0L314.25,267.2C318.53,269.69,318.53,273.72,314.25,276.17Z"/><path class="cls-15" d="M164.12,184.18a14.88,14.88,0,0,1,7.29,1.73l142.34,82.16c1.75,1,2.71,2.31,2.71,3.64s-1,2.6-2.71,3.6L171.4,357.5a16.22,16.22,0,0,1-14.54,0L14.51,275.31c-1.76-1-2.72-2.29-2.72-3.62A3.66,3.66,0,0,1,13.17,269a7,7,0,0,1,1.34-1l142.35-82.16a14.76,14.76,0,0,1,7.26-1.73m0-1a15.82,15.82,0,0,0-7.76,1.86L14,267.2a7.73,7.73,0,0,0-1.53,1.11,4.58,4.58,0,0,0-1.7,3.38c0,1.64,1.07,3.26,3.23,4.48l142.34,82.2a17.26,17.26,0,0,0,15.55,0l142.34-82.2c4.28-2.45,4.28-6.48,0-9L171.91,185a15.94,15.94,0,0,0-7.79-1.86Z"/><path class="cls-16" d="M159,204.57,47.86,268.71c-2.86,1.65-2.86,4.33,0,6L159,338.83a11.46,11.46,0,0,0,10.36,0L280.4,274.69c2.86-1.65,2.86-4.33,0-6L169.31,204.57A11.46,11.46,0,0,0,159,204.57Z"/><path class="cls-17" d="M280.4,268.71,169.31,204.57a10.66,10.66,0,0,0-5.18-1.23v5.26L279.5,275.21l.9-.52C283.26,273,283.26,270.36,280.4,268.71Z"/><path class="cls-18" d="M164.13,203.34a10.63,10.63,0,0,0-5.18,1.23L47.86,268.71c-2.86,1.65-2.86,4.33,0,6l.89.52L164.13,208.6Z"/><polygon class="cls-19" points="127.69 236.64 164.11 257.68 164.13 145.49 127.69 124.46 127.69 236.64"/><polygon class="cls-20" points="164.11 257.68 200.56 236.64 200.55 124.45 164.13 145.49 164.11 257.68"/><polygon class="cls-21" points="200.55 124.45 164.11 103.41 127.69 124.46 164.13 145.49 200.55 124.45"/><line class="cls-22" x1="164.11" y1="257.68" x2="164.12" y2="145.49"/><line class="cls-23" x1="200.55" y1="124.45" x2="164.12" y2="145.49"/><polygon class="cls-19" points="188.43 271.69 224.85 292.74 224.86 194.57 188.43 173.54 188.43 271.69"/><polygon class="cls-20" points="224.85 292.74 261.3 271.69 261.28 173.54 224.86 194.57 224.85 292.74"/><polygon class="cls-24" points="261.28 173.54 224.85 152.5 188.43 173.54 224.86 194.57 261.28 173.54"/><line class="cls-25" x1="224.85" y1="292.74" x2="224.86" y2="194.57"/><line class="cls-26" x1="261.28" y1="173.54" x2="224.86" y2="194.57"/><polygon class="cls-19" points="66.95 271.7 103.38 292.74 103.39 180.55 66.95 159.51 66.95 271.7"/><polygon class="cls-20" points="103.38 292.74 139.82 271.7 139.81 159.51 103.39 180.55 103.38 292.74"/><polygon class="cls-27" points="139.81 159.51 103.38 138.47 66.95 159.51 103.39 180.55 139.81 159.51"/><line class="cls-28" x1="103.38" y1="292.74" x2="103.39" y2="180.55"/><line class="cls-29" x1="139.81" y1="159.51" x2="103.39" y2="180.55"/><polygon class="cls-19" points="127.7 306.76 164.12 327.8 164.14 243.65 127.7 222.62 127.7 306.76"/><polygon class="cls-20" points="164.12 327.8 200.57 306.76 200.56 222.62 164.14 243.65 164.12 327.8"/><polygon class="cls-30" points="200.56 222.62 164.12 201.57 127.7 222.62 164.14 243.65 200.56 222.62"/><line class="cls-31" x1="164.12" y1="327.8" x2="164.14" y2="243.65"/><line class="cls-32" x1="200.56" y1="222.62" x2="164.14" y2="243.65"/><path class="cls-33" d="M171.89,63.86a13.35,13.35,0,0,1-7.77,1.86h0V340.06a11.86,11.86,0,0,0,5.18-1.24l110.2-63.62c2.05-1.13,3-2.13,3-3.5V0Z"/><path class="cls-34" d="M164,65.71a15.9,15.9,0,0,1-2-.08h-.12a16.4,16.4,0,0,1-1.86-.31c-.4-.1-.78-.24-1.16-.36s-.49-.13-.72-.22a14.59,14.59,0,0,1-1.79-.84L45.7,0V271.69a3.68,3.68,0,0,0,2.14,3l111.1,64.14a11.9,11.9,0,0,0,5,1.21l.14,0V65.72Z"/><path class="cls-2" d="M76.58,183c-2.62,0-4.94-.82-8.62-.53-3.24.25-4.58.3-7.47-.64-3.12-1-10.4-7.11-16.61-13.48-7.33-7.53-13.85-19.45-15.92-25-4.22-11.16-7.74-28-9.8-34.56s-5.24-8.07-9.2-8.92C4.3,98.94.26,102.39,2,112.2A184.86,184.86,0,0,0,14.5,151.29,92.48,92.48,0,0,0,32,176.11c6.55,6.78,12.77,10.91,20.67,16,2.15,1.4,3.41,3,7.2,6.13s8.92,5.88,13,6.56,5.64.27,6.14-.49c.62-1,0-1.83-1.85-2.35a25.06,25.06,0,0,1-8.33-3.36s3.94,1.34,6.36,1.93a24.82,24.82,0,0,0,6.6.72c2.14-.1,3.84-2.79,2-3.36s-3.4-.51-7-1.44a24.71,24.71,0,0,1-5.47-2.11,46.92,46.92,0,0,0,7.35.85c3.42,0,4.84-.63,5.75-1.14s1.4-2.34-1-2.75c-2.12-.36-5,.09-8.89-1.24-2.86-1-4.75-2-4.22-2.34s2.16.38,4.76,0,4.69-2.24,4.37-3.61S79.19,183,76.58,183Z"/><path class="cls-3" d="M6,99.43c-4.9,2-7.24,7.38-5.3,17,1.9,9.44,5.91,24,5.91,24s9.23.28,18.64-7.57c0,0-4.53-20.73-6.3-26.08S12.52,96.69,6,99.43Z"/></g></g></g></svg>