<svg xmlns="http://www.w3.org/2000/svg" viewBox="0 0 274.21 398.26"><defs><style>.cls-1{isolation:isolate;}.cls-2{fill:#6b99d1;opacity:0.15;mix-blend-mode:multiply;}.cls-3{opacity:0.3;}.cls-4{fill:#0d88d6;}.cls-5{fill:none;stroke:#e9fffb;stroke-miterlimit:10;}.cls-6,.cls-8{fill:#022caf;}.cls-6,.cls-7{opacity:0.8;}.cls-9{opacity:0.5;}.cls-10{opacity:0.7;}.cls-11{opacity:0.9;}.cls-12{fill:#ffa8a7;}.cls-13{fill:#2d2979;}.cls-14{fill:#291d51;}.cls-15{fill:#543354;}.cls-16{fill:#7fa8e6;}.cls-17{fill:#597bc6;}.cls-18{fill:#f28f8f;}.cls-19{fill:#f5fbfb;}</style></defs><g class="cls-1"><g id="Layer_2" data-name="Layer 2"><g id="Layer_1-2" data-name="Layer 1"><path class="cls-2" d="M207.55,371.21l19.8-11.43c13.44-7.76,32-9.62,41.44-4.17s6.22,16.17-7.21,23.93L241.77,391c-13.43,7.76-32,9.62-41.43,4.16S194.12,379,207.55,371.21Z"/><g class="cls-3"><path class="cls-4" d="M7.8,72.11,130.1,1.5c4-2.33,7.3-.44,7.3,4.21V94.24a16.14,16.14,0,0,1-7.3,12.64L7.8,177.49c-4,2.33-7.3.44-7.3-4.21V84.75A16.13,16.13,0,0,1,7.8,72.11Z"/><path class="cls-5" d="M7.8,72.11,130.1,1.5c4-2.33,7.3-.44,7.3,4.21V94.24a16.14,16.14,0,0,1-7.3,12.64L7.8,177.49c-4,2.33-7.3.44-7.3-4.21V84.75A16.13,16.13,0,0,1,7.8,72.11Z"/><path class="cls-6" d="M15.56,85.34,65.3,56.62c2-1.16,3.65-.22,3.65,2.11v.2a8,8,0,0,1-3.65,6.32L15.56,94c-2,1.16-3.65.22-3.65-2.11v-.2A8,8,0,0,1,15.56,85.34Z"/><path class="cls-6" d="M79.48,48.44l42.86-24.75c2-1.16,3.65-.22,3.65,2.11V26a8,8,0,0,1-3.65,6.32L79.48,57.07c-2,1.16-3.65.22-3.65-2.1v-.21A8,8,0,0,1,79.48,48.44Z"/><g class="cls-7"><path class="cls-8" d="M15.56,125.94,65.3,97.22c2-1.16,3.65-.22,3.65,2.11v.2a8,8,0,0,1-3.65,6.32L15.56,134.57c-2,1.16-3.65.22-3.65-2.11v-.2A8,8,0,0,1,15.56,125.94Z"/><path class="cls-8" d="M79.48,89l42.86-24.75c2-1.17,3.65-.22,3.65,2.11v.2a8,8,0,0,1-3.65,6.32L79.48,97.67c-2,1.16-3.65.22-3.65-2.11v-.2A8,8,0,0,1,79.48,89Z"/></g><g class="cls-7"><path class="cls-8" d="M15.56,105.64,42.49,90.09c2-1.16,3.64-.22,3.64,2.11v.21a8.07,8.07,0,0,1-3.65,6.32L15.56,114.27c-2,1.16-3.65.22-3.65-2.11V112A8,8,0,0,1,15.56,105.64Z"/><path class="cls-8" d="M54.58,83.11,77.42,69.85c2-1.17,3.64-.23,3.64,2.09v.21a8.09,8.09,0,0,1-3.64,6.33L54.58,91.74c-2,1.17-3.65.23-3.65-2.1v-.2A8.08,8.08,0,0,1,54.58,83.11Z"/><path class="cls-8" d="M90.37,62.35l32-18.37c2-1.16,3.65-.21,3.65,2.12v.2a8,8,0,0,1-3.65,6.31L90.37,71c-2,1.16-3.66.21-3.66-2.11v-.21A8.05,8.05,0,0,1,90.37,62.35Z"/></g><g class="cls-7"><path class="cls-8" d="M15.56,146.46l43.38-25c2-1.16,3.65-.21,3.65,2.11v.21a8.06,8.06,0,0,1-3.65,6.32l-43.38,25c-2,1.17-3.65.22-3.65-2.1v-.21A8.06,8.06,0,0,1,15.56,146.46Z"/><path class="cls-8" d="M71,114.48l22.85-13.26c2-1.17,3.64-.23,3.64,2.1v.21a8.09,8.09,0,0,1-3.64,6.32L71,123.11c-2,1.17-3.64.23-3.64-2.09v-.21A8.11,8.11,0,0,1,71,114.48Z"/><path class="cls-8" d="M106.83,93.72l15.51-8.92c2-1.16,3.65-.21,3.65,2.12v.2a8.07,8.07,0,0,1-3.65,6.32l-15.51,8.91c-2,1.16-3.66.22-3.66-2.11V100A8.05,8.05,0,0,1,106.83,93.72Z"/></g></g><g class="cls-9"><path class="cls-4" d="M30.62,85.28l122.3-70.61c4-2.33,7.29-.44,7.29,4.21v88.53a16.11,16.11,0,0,1-7.3,12.64L30.62,190.67c-4,2.32-7.3.44-7.3-4.22V97.92A16.14,16.14,0,0,1,30.62,85.28Z"/><path class="cls-5" d="M30.62,85.28l122.3-70.61c4-2.33,7.29-.44,7.29,4.21v88.53a16.11,16.11,0,0,1-7.3,12.64L30.62,190.67c-4,2.32-7.3.44-7.3-4.22V97.92A16.14,16.14,0,0,1,30.62,85.28Z"/><path class="cls-6" d="M38.37,98.51,88.12,69.79c2-1.16,3.65-.22,3.65,2.11v.21a8.1,8.1,0,0,1-3.65,6.32L38.37,107.14c-2,1.17-3.64.22-3.64-2.1v-.21A8.09,8.09,0,0,1,38.37,98.51Z"/><path class="cls-6" d="M102.29,61.61l42.87-24.75c2-1.16,3.65-.22,3.65,2.11v.21a8.07,8.07,0,0,1-3.65,6.32L102.29,70.24c-2,1.17-3.64.22-3.64-2.1v-.21A8.09,8.09,0,0,1,102.29,61.61Z"/><g class="cls-7"><path class="cls-8" d="M38.37,139.11l49.75-28.72c2-1.16,3.65-.22,3.65,2.11v.21A8.1,8.1,0,0,1,88.12,119L38.37,147.74c-2,1.17-3.64.22-3.64-2.1v-.21A8.08,8.08,0,0,1,38.37,139.11Z"/><path class="cls-8" d="M102.29,102.21l42.87-24.75c2-1.16,3.65-.22,3.65,2.11v.21a8,8,0,0,1-3.65,6.31l-42.87,24.75c-2,1.17-3.64.22-3.64-2.1v-.21A8.09,8.09,0,0,1,102.29,102.21Z"/></g><g class="cls-7"><path class="cls-8" d="M38.37,118.81,65.3,103.27c2-1.17,3.65-.22,3.65,2.1v.21a8,8,0,0,1-3.65,6.32L38.37,127.44c-2,1.17-3.64.22-3.64-2.1v-.21A8.09,8.09,0,0,1,38.37,118.81Z"/><path class="cls-8" d="M77.39,96.28,100.24,83c2-1.17,3.64-.23,3.64,2.1v.21a8.09,8.09,0,0,1-3.64,6.32L77.39,104.91c-2,1.17-3.64.23-3.64-2.09v-.21A8.09,8.09,0,0,1,77.39,96.28Z"/><path class="cls-8" d="M113.18,75.52l32-18.36c2-1.16,3.66-.22,3.66,2.11v.21a8.05,8.05,0,0,1-3.66,6.31l-32,18.36c-2,1.16-3.65.22-3.65-2.11v-.2A8.07,8.07,0,0,1,113.18,75.52Z"/></g><g class="cls-7"><path class="cls-8" d="M38.38,159.64l43.38-25c2-1.17,3.65-.22,3.65,2.11v.2a8,8,0,0,1-3.65,6.32l-43.38,25c-2,1.16-3.65.22-3.65-2.11V166A8,8,0,0,1,38.38,159.64Z"/><path class="cls-8" d="M93.85,127.66l22.85-13.27c2-1.17,3.64-.23,3.64,2.1v.21a8.09,8.09,0,0,1-3.65,6.33L93.85,136.29c-2,1.16-3.64.23-3.64-2.1V134A8.08,8.08,0,0,1,93.85,127.66Z"/><path class="cls-8" d="M129.65,106.9,145.16,98c2-1.16,3.65-.22,3.65,2.11v.21a8.07,8.07,0,0,1-3.65,6.31l-15.51,8.92c-2,1.16-3.66.21-3.66-2.12v-.2A8,8,0,0,1,129.65,106.9Z"/></g></g><g class="cls-10"><path class="cls-4" d="M53.43,98.45,175.74,27.84c4-2.32,7.29-.44,7.29,4.21v88.54a16.13,16.13,0,0,1-7.29,12.64L53.43,203.84c-4,2.32-7.29.44-7.29-4.21V111.09A16.13,16.13,0,0,1,53.43,98.45Z"/><path class="cls-5" d="M53.43,98.45,175.74,27.84c4-2.32,7.29-.44,7.29,4.21v88.54a16.13,16.13,0,0,1-7.29,12.64L53.43,203.84c-4,2.32-7.29.44-7.29-4.21V111.09A16.13,16.13,0,0,1,53.43,98.45Z"/><path class="cls-6" d="M61.19,111.69,110.93,83c2-1.17,3.65-.22,3.65,2.1v.21a8,8,0,0,1-3.65,6.32L61.19,120.32c-2,1.16-3.65.22-3.65-2.11V118A8.07,8.07,0,0,1,61.19,111.69Z"/><path class="cls-6" d="M125.11,74.79,168,50c2-1.17,3.65-.23,3.65,2.1v.21A8.07,8.07,0,0,1,168,58.67L125.11,83.42c-2,1.16-3.65.22-3.65-2.11v-.2A8.07,8.07,0,0,1,125.11,74.79Z"/><g class="cls-7"><path class="cls-8" d="M61.19,152.29l49.74-28.72c2-1.17,3.65-.22,3.65,2.1v.21a8,8,0,0,1-3.65,6.32L61.19,160.92c-2,1.16-3.65.22-3.65-2.11v-.21A8.07,8.07,0,0,1,61.19,152.29Z"/><path class="cls-8" d="M125.11,115.39,168,90.63c2-1.16,3.65-.22,3.65,2.11V93A8.09,8.09,0,0,1,168,99.27L125.11,124c-2,1.16-3.65.22-3.65-2.11v-.21A8.07,8.07,0,0,1,125.11,115.39Z"/></g><g class="cls-7"><path class="cls-8" d="M61.19,132l26.93-15.55c2-1.16,3.65-.22,3.65,2.11v.2a8.07,8.07,0,0,1-3.65,6.32L61.19,140.62c-2,1.16-3.65.22-3.65-2.11v-.2A8.07,8.07,0,0,1,61.19,132Z"/><path class="cls-8" d="M100.21,109.46l22.84-13.27c2-1.16,3.65-.23,3.65,2.1v.21a8.1,8.1,0,0,1-3.65,6.33l-22.84,13.26c-2,1.17-3.64.23-3.64-2.1v-.21A8.08,8.08,0,0,1,100.21,109.46Z"/><path class="cls-8" d="M136,88.7l32-18.37c2-1.16,3.66-.21,3.66,2.11v.21A8,8,0,0,1,168,79L136,97.33c-2,1.16-3.65.21-3.65-2.12V95A8,8,0,0,1,136,88.7Z"/></g><g class="cls-7"><path class="cls-8" d="M61.19,172.81l43.39-25c2-1.16,3.65-.22,3.65,2.11v.21a8,8,0,0,1-3.65,6.31l-43.39,25c-2,1.16-3.65.22-3.65-2.11v-.2A8.07,8.07,0,0,1,61.19,172.81Z"/><path class="cls-8" d="M116.67,140.83l22.84-13.26c2-1.17,3.65-.23,3.65,2.09v.21a8.08,8.08,0,0,1-3.65,6.33l-22.84,13.26c-2,1.17-3.64.23-3.64-2.1v-.2A8.09,8.09,0,0,1,116.67,140.83Z"/><path class="cls-8" d="M152.46,120.07,168,111.15c2-1.16,3.66-.21,3.66,2.11v.21a8,8,0,0,1-3.66,6.31l-15.51,8.92c-2,1.16-3.65.21-3.65-2.11v-.21A8.05,8.05,0,0,1,152.46,120.07Z"/></g></g><g class="cls-11"><path class="cls-4" d="M76.25,111.63,198.55,41c4-2.33,7.3-.45,7.3,4.21v88.53a16.12,16.12,0,0,1-7.3,12.64L76.25,217c-4,2.33-7.29.44-7.29-4.21V124.27A16.11,16.11,0,0,1,76.25,111.63Z"/><path class="cls-5" d="M76.25,111.63,198.55,41c4-2.33,7.3-.45,7.3,4.21v88.53a16.12,16.12,0,0,1-7.3,12.64L76.25,217c-4,2.33-7.29.44-7.29-4.21V124.27A16.11,16.11,0,0,1,76.25,111.63Z"/><path class="cls-6" d="M84,124.86l49.74-28.72c2-1.16,3.65-.22,3.65,2.11v.2a8,8,0,0,1-3.65,6.32L84,133.49c-2,1.16-3.65.22-3.65-2.11v-.2A8,8,0,0,1,84,124.86Z"/><path class="cls-6" d="M147.93,88l42.86-24.75c2-1.16,3.65-.22,3.65,2.1v.21a8,8,0,0,1-3.65,6.32L147.93,96.59c-2,1.16-3.65.22-3.65-2.11v-.2A8,8,0,0,1,147.93,88Z"/><g class="cls-7"><path class="cls-8" d="M84,165.46l49.74-28.72c2-1.16,3.65-.22,3.65,2.1v.21a8,8,0,0,1-3.65,6.32L84,174.09c-2,1.16-3.65.22-3.65-2.11v-.2A8,8,0,0,1,84,165.46Z"/><path class="cls-8" d="M147.93,128.56l42.86-24.75c2-1.17,3.65-.22,3.65,2.1v.21a8,8,0,0,1-3.65,6.32l-42.86,24.75c-2,1.16-3.65.22-3.65-2.11v-.2A8,8,0,0,1,147.93,128.56Z"/></g><g class="cls-7"><path class="cls-8" d="M84,145.16l26.93-15.55c2-1.16,3.65-.22,3.65,2.11v.21a8.07,8.07,0,0,1-3.65,6.31L84,153.79c-2,1.16-3.65.22-3.65-2.11v-.2A8,8,0,0,1,84,145.16Z"/><path class="cls-8" d="M123,122.63l22.84-13.26c2-1.17,3.64-.23,3.64,2.09v.21a8.09,8.09,0,0,1-3.64,6.33L123,131.26c-2,1.17-3.65.23-3.65-2.1V129A8.1,8.1,0,0,1,123,122.63Z"/><path class="cls-8" d="M158.82,101.87l32-18.37c2-1.16,3.65-.21,3.65,2.12v.2a8,8,0,0,1-3.65,6.31l-32,18.37c-2,1.16-3.65.21-3.65-2.11v-.21A8,8,0,0,1,158.82,101.87Z"/></g><g class="cls-7"><path class="cls-8" d="M84,186l43.39-25c2-1.16,3.65-.21,3.65,2.11v.21a8.05,8.05,0,0,1-3.65,6.31L84,194.61c-2,1.17-3.65.22-3.65-2.11v-.2A8.06,8.06,0,0,1,84,186Z"/><path class="cls-8" d="M139.49,154l22.84-13.26c2-1.17,3.64-.23,3.64,2.1v.2a8.09,8.09,0,0,1-3.64,6.33l-22.84,13.26c-2,1.17-3.65.23-3.65-2.09v-.21A8.1,8.1,0,0,1,139.49,154Z"/><path class="cls-8" d="M175.28,133.24l15.51-8.92c2-1.16,3.65-.21,3.65,2.12v.2a8,8,0,0,1-3.65,6.32l-15.51,8.91c-2,1.16-3.65.22-3.65-2.11v-.21A8,8,0,0,1,175.28,133.24Z"/></g></g><path class="cls-12" d="M235.9,362.73c2-2.13,3.95-11.81,3.95-11.81s1.08-3.62.92-5.14S239,334,239,334l10.05-1s-.56,8.45-.61,11.17a29.05,29.05,0,0,0,1.2,9.13c-.49,1.43-6,11.41-6,11.45s-6,1.53-6,1.53l-2.89-1.2Z"/><path class="cls-13" d="M234.37,368.32c-1.39-.32-5.89-3.44-3.14-4.85a5.74,5.74,0,0,1,4.31-.46s-.59,1.09.35,1c1.8-.17,3.19-8.06,3.19-10.7l5,1.8-2,10.89-2.3,1.49-3.84.83Z"/><path class="cls-14" d="M241,357.23c-.11,6.21-1.14,7-1.82,8.42a4.33,4.33,0,0,1-4.21,2.43c1.95,1,11.78.75,13.83-.74,1.14-.83.39-3.11.36-5.84s.82-5.8.77-7.27S241,357.23,241,357.23Z"/><path class="cls-13" d="M244.3,348c-3.06.12-5.09,3-5.25,5.65s2.49,2.91,4.54,7.91c1.08,2.62,1.39,6.61,1.43,10.3a1.25,1.25,0,0,0,1.73-.07s0-3,.18-5.84a46.78,46.78,0,0,1,.75-6c.8-2.7,2.44-3.93,2.2-6.65a8.26,8.26,0,0,0-1.59-4.27A6,6,0,0,0,244.3,348Z"/><path class="cls-14" d="M224.51,383.57s.9,1.58,5.76-.47a11.57,11.57,0,0,0,4-2.53,45.7,45.7,0,0,1,1.89-5.34s-1-6.37-4-3.91S224.51,383.57,224.51,383.57Z"/><path class="cls-12" d="M235.76,349.08c.57,3.58.85,6.07,1.24,8.29a9.06,9.06,0,0,0,1.47,3.8,10.71,10.71,0,0,1,2.11,4.62s-5.79.82-8.73,4.8-2.77,8-5.5,8.62-7.28-2.47-7.28-2.47,2.88-.12,4-3.74,4.07-11.47,4.33-13.49c.35-2.82-2.18-8.64-2.18-8.64Z"/><path class="cls-13" d="M236.74,361.33c-2.51.16-6.33,4.15-7.61,7.06s-3.42,7-5.06,7.93-4.54-.41-7-.43-4.22,1.13-4.36,2.93L223,383.7c2.37,1.13,4.38,1.16,6.24-3.77s3.59-9.19,5.95-5.73c2.06,3,2.91,9,2.91,9s1,.76,2.07-.45a24,24,0,0,1-.59-5.19c-.09-6.62,2.28-8.23,1.69-10.84C240.4,362.88,239.47,361.16,236.74,361.33Z"/><path class="cls-15" d="M209,102.59s-6.57-3.82-5.91-9.51S212.49,73.42,228,80.19C242.63,83.36,209,102.59,209,102.59Z"/><path class="cls-12" d="M246.28,127.8c4.47,1.29,7,6.25,11,16.84s8,26,7.51,30.11c-1.27,10-7.47,18.5-18.15,25.58l-4.78-8.74s10.49-8.43,11.49-18.42c.56-5.6-6.71-24.68-6.71-25.2S246.28,127.8,246.28,127.8Z"/><path class="cls-16" d="M250.84,300.17c-1.45-11.17-1.22-16.29-1.22-16.29s1.75-16.93,3.16-31.45c2.08-21.41,6.16-26.26,3.82-39.18-2-11.18-9.49-19.86-12.81-28.07l-34.95,2.75s-3,9.91-7,29.64-2.45,46.5.53,74.05c.86,8,5.9,18.66,11.56,32.19,5.18,12.38,13,32.76,13,32.76,5.4,3.14,9.73-2.25,9.73-2.25s-4-26.84-5.64-35.92c-2.76-15.43-10-23-10-23s1.62-11.24,2.77-21.19c1.24-10.79,4.88-28.69,4.88-28.69s.18,27.71.73,35.7.87,9,3.64,24.47c2.3,12.81,7.36,38.15,7.36,38.15a10.14,10.14,0,0,0,8.05-.27S252.3,311.35,250.84,300.17Z"/><path class="cls-17" d="M249.62,226c-6.91,7.14-19.2,8.64-19.2,8.64l-1.64,11c-.47,9,.7,19.58.47,29.85,0,0,2.51-26.79,5.84-31.23S247.39,232.11,249.62,226Z"/><path class="cls-12" d="M244.2,127.6c-7.44-.45-8.15.78-8.75-1.86-.21-.94-.62-7.49-.62-7.49a23.55,23.55,0,0,0,1.85-2.75,18.9,18.9,0,0,0,9-14.22,19.11,19.11,0,0,0-17-21c-9.87-1-17.14,5.91-19.08,15.43-1,4.71-2.12,14.31.8,22,1.65,4.36,3.18,7.41,7.12,7.25a23.37,23.37,0,0,0,3.89-.69,36.84,36.84,0,0,1,.22,5.47c-.11,1.9.22,2.86-3.51,5.15s5.64,7,11.75,6.55,13-4.15,14.89-8.11C246.86,128.94,247.71,127.81,244.2,127.6Z"/><path class="cls-18" d="M238.89,113.9l-6.42.34-7-.11-2.16-2.52s-.45,8.07-2.65,10a18.92,18.92,0,0,1-5.06,3.08,5.49,5.49,0,0,0,1.91.26,23.37,23.37,0,0,0,3.89-.69,36.84,36.84,0,0,1,.22,5.47c-.11,1.9.22,2.86-3.51,5.15s5.64,7,11.75,6.55,13-4.15,14.89-8.11c2.1-4.41,3-5.54-.56-5.75-7.44-.45-8.15.78-8.75-1.86-.21-.94-.62-7.49-.62-7.49a23.55,23.55,0,0,0,1.85-2.75A19.42,19.42,0,0,0,238.89,113.9Z"/><path class="cls-15" d="M238.76,116.14c4.79-4.37,6.3-8.71,6.94-14.86a19.11,19.11,0,0,0-17-21c-6.81-.71-13.94,1.72-17.36,10.2A3,3,0,0,0,213.63,92a4.84,4.84,0,0,0,1,4,9.63,9.63,0,0,1,2.37,5.44c.14,1.81-.17,4.46.35,6.36a3.19,3.19,0,0,0,3.26,2.22s.17-4,.57-7.75c1.17-2.67,5.94-3.26,6.82.18.8,3.12,0,5-1.08,7.31-.83,1.68-2.3,2.56-3.64,1.91,0,4.69,1.76,6.83,5.9,8s4.54-.37,6.67-1.47A18.49,18.49,0,0,0,238.76,116.14Z"/><path class="cls-19" d="M236.82,127.44c1.37,1.71,1.52,3.87-3.79,5.21-6.94,1.74-11.62-.89-11.62-.89a77.72,77.72,0,0,0-12,6.37c-11.87,8.24-14.74,22.57-2.76,27.5.73,5.38,1.62,19.24,1.85,22.39,10.12,7.07,30.7,4.66,35.32-2.84a58.89,58.89,0,0,1,.7-7.49c4.84-17.92,8.61-22.68,7.26-36.2-.77-7.73-1.36-11.62-5.47-13.69C243.79,127,238.31,127.34,236.82,127.44Z"/><path class="cls-15" d="M223.32,111.61v47s4.87,3.35,13.37-.71,9.12-6.53,9.12-11V99s-9.69,11.49-16.66,13.86C223.74,114.73,223.32,111.61,223.32,111.61Z"/><path class="cls-12" d="M136.58,185.17c2.3.85,4.61.73,7.76,2.19a25.41,25.41,0,0,0,7.43,2.48c2.81.46,7.19-1,14.75-4.57,8.92-4.21,18.48-12.49,22.12-16.63A191.66,191.66,0,0,0,208,141c3.26-6,7.42-7.47,11-6.29,4.31,1.41,4.84,5.7.05,13.75s-13,20-22.12,29a83,83,0,0,1-23.06,16.26c-8,3.82-10.76,4.82-19.4,6.75-2.36.52-4,1.49-8.35,3s-9.79,2.24-13.59,1.5-5.06-1.61-5.25-2.45c-.23-1.05.63-1.6,2.4-1.46a23.43,23.43,0,0,0,8.43-.22s-3.9-.11-6.23-.39a23.45,23.45,0,0,1-6-1.53c-1.85-.79-2.47-3.72-.68-3.62s3.16.66,6.62,1a23.36,23.36,0,0,0,5.5-.06,44.34,44.34,0,0,1-6.75-1.67c-3-1.08-4-2.14-4.69-2.88s-.46-2.53,1.75-2.11c2,.38,4.34,1.7,8.24,1.82,2.83.1,4.84-.23,4.48-.67s-2-.38-4.19-1.58-3.39-3.51-2.66-4.61S134.27,184.32,136.58,185.17Z"/></g></g></g></svg>