<svg xmlns="http://www.w3.org/2000/svg" viewBox="0 0 384.08 52.65"><defs><style>.cls-1{fill:#fff;}</style></defs><g id="Layer_2" data-name="Layer 2"><g id="Page_1" data-name="Page 1"><path class="cls-1" d="M34.08,0V0H20.59C20.57.28,18.93,28.48,0,41.53L7.66,52.65A51.29,51.29,0,0,0,14.53,47h25.6A51.29,51.29,0,0,0,47,52.65l7.67-11.12C35.91,28.61,34.12.82,34.08,0Zm-19.73,34,1.38-1.77A32.12,32.12,0,0,0,22.25,18.1l2.18.25v7.79L22.5,25a37.33,37.33,0,0,1-3.73,6.84h7.47V13.56H24.79l2.54-4.41,2.55,4.41H28.43v18.3H35.9A37.33,37.33,0,0,1,32.17,25l-1.93,1.12V18.35l2.18-.25a32.12,32.12,0,0,0,6.52,14.19l1.38,1.77Z"/><path class="cls-1" d="M94.77,39.28H79.57l-2.44,7.2H66.75L81.48,5.74H93l14.74,40.74H97.21Zm-2.55-7.66-5-14.91-5,14.91Z"/><path class="cls-1" d="M141.48,5.74v8H130.69V46.48h-9.92V13.69H110V5.74Z"/><path class="cls-1" d="M146.85,45.41a5,5,0,0,1-1.66-3.81,5.14,5.14,0,0,1,1.66-3.88,6.5,6.5,0,0,1,8.47,0A5.13,5.13,0,0,1,157,41.6a5,5,0,0,1-1.65,3.81,6.63,6.63,0,0,1-8.47,0Z"/><path class="cls-1" d="M179.08,22.34h-5.34V46.48h-9.92V22.34h-3.6V14.1h3.6v-.93q0-6,3.42-9.08t10-3.1c.74,0,1.28,0,1.63.05V9.46c-1.9-.12-3.23.15-4,.81s-1.16,1.84-1.16,3.54v.29h5.34Z"/><path class="cls-1" d="M184.45,9.2a5,5,0,0,1-1.66-3.8,5,5,0,0,1,1.66-3.86,6.59,6.59,0,0,1,8.47,0,5,5,0,0,1,1.65,3.86,5,5,0,0,1-1.65,3.8,6,6,0,0,1-4.21,1.53A6,6,0,0,1,184.45,9.2Zm9.19,4.9V46.48h-9.92V14.1Z"/><path class="cls-1" d="M229.65,17.44Q233,21.12,233,27.56V46.48h-9.86V28.9a7.11,7.11,0,0,0-1.68-5,6.6,6.6,0,0,0-9.06,0,7.11,7.11,0,0,0-1.68,5V46.48h-9.92V14.1h9.92v4.29A10.49,10.49,0,0,1,214.82,15a13,13,0,0,1,5.75-1.25A11.75,11.75,0,0,1,229.65,17.44Z"/><path class="cls-1" d="M239.86,21.41a14.07,14.07,0,0,1,5.14-5.8,13.41,13.41,0,0,1,7.25-2,12.42,12.42,0,0,1,6,1.39,10.24,10.24,0,0,1,4,3.66V14h9.92V46.42h-9.92V41.84a10.65,10.65,0,0,1-4,3.65,12.46,12.46,0,0,1-6,1.4A13.16,13.16,0,0,1,245,44.83,14.3,14.3,0,0,1,239.86,39a19.55,19.55,0,0,1-1.88-8.8A19.34,19.34,0,0,1,239.86,21.41Zm20.31,3a7,7,0,0,0-10,0,8,8,0,0,0-2.06,5.83,8.22,8.22,0,0,0,2.06,5.89,6.62,6.62,0,0,0,5,2.18,6.7,6.7,0,0,0,5-2.15,8.12,8.12,0,0,0,2.06-5.86A8.13,8.13,0,0,0,260.17,24.37Z"/><path class="cls-1" d="M308.15,17.44q3.41,3.68,3.4,10.12V46.48h-9.87V28.9a7.11,7.11,0,0,0-1.68-5,6.59,6.59,0,0,0-9.05,0,7.11,7.11,0,0,0-1.68,5V46.48h-9.92V14.1h9.92v4.29A10.42,10.42,0,0,1,293.33,15a12.93,12.93,0,0,1,5.74-1.25A11.74,11.74,0,0,1,308.15,17.44Z"/><path class="cls-1" d="M318.54,21.41a14.27,14.27,0,0,1,5.75-5.8,17.22,17.22,0,0,1,8.44-2,16,16,0,0,1,10.18,3.19,15.06,15.06,0,0,1,5.37,9H337.72a5.09,5.09,0,0,0-5.17-3.71,5.23,5.23,0,0,0-4.35,2.12,9.8,9.8,0,0,0-1.62,6.06,9.86,9.86,0,0,0,1.62,6.07,5.22,5.22,0,0,0,4.35,2.11,5.08,5.08,0,0,0,5.17-3.71h10.56a15.21,15.21,0,0,1-5.4,8.94,15.91,15.91,0,0,1-10.15,3.25,17.22,17.22,0,0,1-8.44-2,14.3,14.3,0,0,1-5.75-5.81,18.13,18.13,0,0,1-2.06-8.82A18.19,18.19,0,0,1,318.54,21.41Z"/><path class="cls-1" d="M383.91,32.61H361.45a6.76,6.76,0,0,0,1.94,4.62,6,6,0,0,0,4.21,1.59,5.19,5.19,0,0,0,5.16-3.13h10.57a14.47,14.47,0,0,1-2.94,5.74,14.76,14.76,0,0,1-5.3,4A17.19,17.19,0,0,1,368,46.89a17.39,17.39,0,0,1-8.47-2,14.5,14.5,0,0,1-5.81-5.81,17.92,17.92,0,0,1-2.08-8.82,18.07,18.07,0,0,1,2.06-8.82,14.2,14.2,0,0,1,5.77-5.8,17.55,17.55,0,0,1,8.53-2,17.34,17.34,0,0,1,8.35,2A14.15,14.15,0,0,1,382,21.18a17.13,17.13,0,0,1,2.06,8.53A26.62,26.62,0,0,1,383.91,32.61Zm-10-5.51A5.07,5.07,0,0,0,372.18,23a6.38,6.38,0,0,0-4.35-1.51,6.26,6.26,0,0,0-4.2,1.45,6.41,6.41,0,0,0-2.12,4.12Z"/></g></g></svg>