<svg xmlns="http://www.w3.org/2000/svg" viewBox="0 0 341.86 452.45"><defs><style>.cls-1{isolation:isolate;}.cls-2{fill:#6b99d1;opacity:0.15;mix-blend-mode:multiply;}.cls-3{fill:#291d51;}.cls-4{fill:#f28f8f;}.cls-5{fill:#2d2979;}.cls-6{fill:#ffa8a7;}.cls-7{fill:#1e3779;}.cls-8{fill:#031f60;}.cls-9{fill:#344593;}.cls-10{fill:#e9fffb;opacity:0.2;}.cls-11{fill:none;stroke:#e9fffb;stroke-miterlimit:10;}.cls-12{fill:#19a3fa;}.cls-13{fill:#56bcfc;}.cls-14{fill:#dceeff;}.cls-15{fill:#fff;}.cls-16{fill:#a5cbfa;}.cls-17{fill:#c8e2ff;}.cls-18{fill:#3a2c6d;}.cls-19{fill:#7fa8e6;}.cls-20{fill:#f5fbfb;}</style></defs><g class="cls-1"><g id="Layer_2" data-name="Layer 2"><g id="Layer_1-2" data-name="Layer 1"><path class="cls-2" d="M.92,407.11l256.34-148a4.88,4.88,0,0,1,4.45,0l6,3.48a1.37,1.37,0,0,1,0,2.58l-256.36,148a5,5,0,0,1-4.44,0l-6-3.46A1.36,1.36,0,0,1,.92,407.11Z"/><path class="cls-2" d="M190.81,380.61l18.11-10.45c12.28-7.09,29.25-8.8,37.89-3.81s5.69,14.78-6.6,21.87l-18.1,10.46c-12.29,7.09-29.25,8.79-37.89,3.81S178.53,387.7,190.81,380.61Z"/><path class="cls-3" d="M228.09,385.05s.95,1.68,6.13-.5,6.64-4.76,6.64-4.76-1.35-10.4-4.55-7.79S228.09,385.05,228.09,385.05Z"/><path class="cls-4" d="M241.1,348.66c-.09,5.45-.23,9.63,1.84,12.55a11.33,11.33,0,0,1,2.25,4.91s-6.16.87-9.29,5.11-3,8.47-5.86,9.18-7.75-2.64-7.75-2.64,3.08-.12,4.28-4,4.28-12.09,4.4-14.26S231,349,231,349Z"/><path class="cls-5" d="M241.16,362.62c-2.68.17-6.79,3.16-8.16,6.27s-3.63,7.47-5.38,8.44-4.83-.44-7.46-.46-4.5,1.2-4.65,3.13l11,5.19c2.53,1.2,4.66,1.23,6.64-4s2.74-8.2,4.32-4.63,2.23,11.6,2.23,11.6a2.54,2.54,0,0,0,3.19-1.33,51.7,51.7,0,0,1,.39-7c.45-3.23,3.38-7.3,3.16-11.18S244.07,362.44,241.16,362.62Z"/><path class="cls-4" d="M228.09,302.46l13.23,1.16s3.09,6.41,3,9.59c3.73,9.7-3,34.8-2.33,46.18,0,0-6,3.22-11,.15,0,0-5.22-48.75-6.09-57.49Z"/><path class="cls-3" d="M200.92,397.88s1,1.68,6.14-.49,6.63-4.77,6.63-4.77-1.34-10.39-4.55-7.78S200.92,397.88,200.92,397.88Z"/><path class="cls-6" d="M213.93,361.49c-.09,5.46-.22,9.63,1.85,12.55A11.39,11.39,0,0,1,218,379s-6.17.87-9.29,5.1-3,8.48-5.86,9.18-7.75-2.63-7.75-2.63,3.07-.12,4.27-4,4.29-12.09,4.4-14.26,0-10.53,0-10.53Z"/><path class="cls-5" d="M214,375.46c-2.67.16-6.79,3.16-8.15,6.27s-3.64,7.46-5.38,8.44-4.83-.45-7.47-.46-4.49,1.2-4.64,3.12l11,5.19c2.53,1.2,4.66,1.24,6.65-4s2.74-8.21,4.31-4.64S212.51,401,212.51,401a2.56,2.56,0,0,0,3.19-1.34,52.7,52.7,0,0,1,.38-7c.45-3.22,3.38-7.29,3.16-11.18S216.9,375.28,214,375.46Z"/><path class="cls-6" d="M217.19,327.37c3.58,5.83-.73,21.74-2.44,44.68,0,0-5.1,3.92-10.95.9,0,0-4.94-47.85-5.81-56.58"/><path class="cls-7" d="M271.34,218.69,22.94,362.06,14.44,367,4.29,361.14a5,5,0,0,1-2.2-3.85V150.51A5.16,5.16,0,0,1,2.83,148a5.23,5.23,0,0,1,1.82-1.93L256.73.54a4.83,4.83,0,0,1,4.44,0l10.1,5.83Z"/><path class="cls-8" d="M22.94,159.6V362.06L14.44,367,4.29,361.14a5,5,0,0,1-2.2-3.85V150.51A5.16,5.16,0,0,1,2.83,148Z"/><path class="cls-9" d="M19.18,149.73,266.62,6.86c3.69-2.12,6.68-.4,6.68,3.86v201.4a14.74,14.74,0,0,1-6.68,11.56L19.19,366.54c-3.69,2.13-6.68.4-6.68-3.85V161.28A14.74,14.74,0,0,1,19.18,149.73Z"/><path class="cls-10" d="M61,149.73,308.46,6.86c3.69-2.12,6.68-.4,6.68,3.86v201.4a14.74,14.74,0,0,1-6.68,11.56L61,366.54c-3.68,2.13-6.67.4-6.67-3.85V161.28A14.74,14.74,0,0,1,61,149.73Z"/><path class="cls-11" d="M61,149.73,308.46,6.86c3.69-2.12,6.68-.4,6.68,3.86v201.4a14.74,14.74,0,0,1-6.68,11.56L61,366.54c-3.68,2.13-6.67.4-6.67-3.85V161.28A14.74,14.74,0,0,1,61,149.73Z"/><path class="cls-12" d="M111.53,180.71l1.93-1.12c5.61-3.24,11.73-3,16.27.08,2.41,1.63,8.55,4.93,8.55,4.93l3.31,18.46c3.61,9.25,13.5,12.73,22.1,7.76l.16-.09c8.6-5,16.14-17,16.84-26.92l7.92-65.23c.7-9.9,7.95-21.78,16.18-26.54a14,14,0,0,1,13.71-.53c3.23,1.68,10.33,6,10.33,6l6.95,39.22c3.44,9.31,12.39,13.3,20,8.91a11.36,11.36,0,0,1,12.12,0c2.89,1.85,8.58,5.06,8.58,5.06l7.26,39L96,310.15l-10.43-6,8.8-96.53C95.23,197.71,102.93,185.67,111.53,180.71Z"/><path class="cls-13" d="M122,186.73l1.93-1.11c8.6-5,18.38-1.73,21.85,7.24L152,209.08c3.6,9.25,13.49,12.73,22.09,7.76l.16-.09c8.6-5,16.14-17,16.84-26.92L199,124.61c1.57-12.25,8-21.79,16.18-26.54s17.7-1.06,21.13,8.25l9.86,36.4c3.44,9.31,12.39,13.31,20,8.91s15.89-.18,18.5,9.4l9.46,34.69L96,310.15l8.8-96.53C105.67,203.73,113.37,191.69,122,186.73Z"/><path class="cls-12" d="M97.53,156.18c0,2.06,1.85,2.66,4.13,1.35l36.88-21.3c2.27-1.31,4.12-4,4.12-6.1s-1.85-2.66-4.12-1.34l-36.88,21.29C99.38,151.4,97.53,154.13,97.53,156.18Z"/><path class="cls-12" d="M97.53,171.25c0,2.05,1.85,2.66,4.13,1.34l36.88-21.29c2.27-1.32,4.12-4.05,4.12-6.1s-1.85-2.66-4.12-1.34l-36.88,21.29C99.38,166.46,97.53,169.19,97.53,171.25Z"/><path class="cls-2" d="M339.1,408.69l-59.68-34.45a14.72,14.72,0,0,0-13.34,0L206.4,408.69c-3.68,2.13-3.68,5.58,0,7.71l59.68,34.45a14.72,14.72,0,0,0,13.34,0L339.1,416.4C342.79,414.27,342.79,410.82,339.1,408.69Z"/><path class="cls-14" d="M339.1,334.84l-59.68-34.45a14.72,14.72,0,0,0-13.34,0L206.4,334.84c-3.68,2.13-3.68,5.58,0,7.71L266.08,377a14.72,14.72,0,0,0,13.34,0l59.68-34.45C342.79,340.42,342.79,337,339.1,334.84Z"/><path class="cls-15" d="M272.75,299.79a12.46,12.46,0,0,1,6.17,1.47l59.68,34.45c1.46.84,2.26,1.9,2.26,3s-.8,2.14-2.26,3l-59.68,34.46a13.77,13.77,0,0,1-12.34,0L206.9,341.68c-1.46-.84-2.26-1.9-2.26-3s.8-2.15,2.26-3l59.68-34.45a12.46,12.46,0,0,1,6.17-1.47m0-1a13.68,13.68,0,0,0-6.67,1.6L206.4,334.84c-3.68,2.13-3.68,5.58,0,7.71L266.08,377a14.7,14.7,0,0,0,13.34,0l59.68-34.45c3.69-2.13,3.69-5.58,0-7.71l-59.68-34.45a13.65,13.65,0,0,0-6.67-1.6Z"/><path class="cls-16" d="M341.86,398.92c0,1.59-1.06,2.84-2.76,3.85l-59.68,34.46a13.49,13.49,0,0,1-6.67,1.59V378.59a13.4,13.4,0,0,0,6.67-1.59l59.68-34.45c1.48-.85,2.76-2.12,2.76-3.85Z"/><path class="cls-17" d="M203.64,398.92c0,1.59,1.07,2.84,2.76,3.85l59.68,34.46a13.49,13.49,0,0,0,6.67,1.59V378.59a13.4,13.4,0,0,1-6.67-1.59L206.4,342.55c-1.48-.85-2.76-2.12-2.76-3.85Z"/><path class="cls-18" d="M284.42,203.14c-4.63-3.13-11-5.15-16.56-4a15.39,15.39,0,0,0-8.65,5.56c-1.06,1.28-2.72,5.24-1.87,10.2.42,2.45,2.2,4.83,4.66,5.22a7.5,7.5,0,0,0,4.41-.94,18.34,18.34,0,0,0,2.81-2.35c1.86-1.49,3.67-3.05,5.45-4.63,2.94-2.6,5.81-5.27,8.65-8A15.26,15.26,0,0,1,284.42,203.14Z"/><path class="cls-4" d="M241.72,289.89c6.29,2.3,46.61,18.24,46.61,18.24s-1.67,30.14-10.75,25.27L236,308.13l-11.08-6.08C223.9,292.22,234.82,287.38,241.72,289.89Z"/><path class="cls-6" d="M198,316.37c-1-9.83,9.94-14.68,16.84-12.16C221.12,306.5,262.3,321,262.3,321L299,318.9c6.3,15-4.55,22.52-16.32,27.7s-22.88,6-31.95,1.12l-41.62-25.28,5.36-4.5s2.83,6.25,2.75,9.43"/><path class="cls-6" d="M260.8,216.22c1.36-8.78,7.69-15.43,16.75-14.92A17.48,17.48,0,0,1,294,219.74a17.29,17.29,0,0,1-7.62,13.37,20.53,20.53,0,0,1-1.58,2.59s1.24,6.07,1.47,6.93c.66,2.38,1.21,1.63,8,1.72,3.21,0,2,.6.24,4.72-1.56,3.69-7.68,7.36-13.25,8.05s-14.32-3.22-11-5.47,4.75-2.68,4.39-4.39a43.22,43.22,0,0,0-1.57-5.53,22.65,22.65,0,0,1-3.79.87c-3.59.31-5.12-2.4-6.82-6.31C259.48,229.39,260.05,220.56,260.8,216.22Z"/><path class="cls-4" d="M273.09,241.73a22.65,22.65,0,0,1-3.79.87,4.86,4.86,0,0,1-2.24-.28,12.21,12.21,0,0,0,3.34-2c2.71-2.15,2.22-6.88,2.18-9.49l.93,2.47,1.72,1.62,6.81,1.79,2.91-.35c.33,1.6,1.15,5.54,1.33,6.23.66,2.38,1.21,1.63,8,1.72,3.21,0,2,.6.24,4.72-1,2.28-3.67,4.55-6.91,6.11l-2.9,1.14-.35.11-13.47-5.21c2.84-1.87,4.08-2.37,3.75-4A43.22,43.22,0,0,0,273.09,241.73Z"/><path class="cls-19" d="M295.11,297.2c.35,5,2.72,9.52,5.71,19.1s3.61,20.33-13.62,28.93-28.42,7.2-37.1,2.86-41-25.65-41-25.65c-3.78-5,10.86-27.48,40.29-29.62L270.12,301Z"/><path class="cls-20" d="M288.73,244.41c1.26,1.56,1.4,3.54-3.46,4.76a15.34,15.34,0,0,1-10.63-.81,71.32,71.32,0,0,0-11,5.82c-10.86,7.54-13.48,20.64-2.53,25.15.67,4.92,1.48,17.59,1.69,20.48,9.26,6.46,28.08,4.26,32.3-2.61a55.71,55.71,0,0,1,.64-6.84c4.42-16.39,7.87-20.74,6.64-33.1-.71-7.07-1.25-10.63-5-12.52C295.11,244,290.1,244.32,288.73,244.41Z"/><path class="cls-18" d="M288.32,233.61c4.18-4.2,5.37-8.23,5.69-13.87a17.48,17.48,0,0,0-16.46-18.44,15.08,15.08,0,0,0-14.11,7.5,9.48,9.48,0,0,0,1.74,2.19,4.13,4.13,0,0,0,.8,3.78,5.17,5.17,0,0,1,1.28,4.19,23.18,23.18,0,0,0,0,5.46,5,5,0,0,0,2.8,3.56s.14-4.39,1.49-6.26c1.59-2.2,3.78-2.22,5.86.23,1.33,1.56,1.21,5.59-.29,7.66-2.35,3.23-4.54,1.26-4.54,1.26.8,2.16.14,5.17,4,6.06a13.09,13.09,0,0,0,9.21-1.37A17,17,0,0,0,288.32,233.61Z"/><path class="cls-18" d="M287.17,204.91c4.53-1.29,8.75,5.66,10.36,15.27s1.69,16.16-1.24,19.74-15.07,9.11-26.35,5c0,0,3.12-1.73,2.64-14,0,0,3,2.94,8.94,1.28s8.12-6.74,7.71-13.48A94.74,94.74,0,0,0,287.17,204.91Z"/><path class="cls-6" d="M200,252.72c.91,2.05,2.35,3.59,3.39,6.59a13.29,13.29,0,0,0,3.09,5.65c1.87,2.11,7.38,5.42,15.39,9.66s14.38,4.21,19.14,2.52c10.41-3.72,16.27-12.72,23-17.88,4.71-3.62,9.22-1.84,9.93,1.57.55,2.66-1.89,10-10,17.54-6.28,5.81-17,12.16-25.8,12.2a43.38,43.38,0,0,1-17.22-4c-7.62-3.62-13.06-7.44-19.83-11.88-1.84-1.21-3.51-1.65-7.3-3.54s-7.71-5-9.65-8-2.16-4.35-1.73-5c.54-.82,1.45-.61,2.48.64a21.6,21.6,0,0,0,5.52,5.39s-2.41-2.63-3.72-4.33a21.65,21.65,0,0,1-2.84-5c-.66-1.71.87-4,1.95-2.74s1.57,2.49,3.54,5a21.25,21.25,0,0,0,3.55,3.58,40.42,40.42,0,0,1-3.21-5.49,8.91,8.91,0,0,1-1.09-4.92c.08-.88,1.36-1.9,2.49-.19,1,1.54,1.65,3.92,4.05,6.56,1.74,1.92,3.24,3,3.3,2.52s-1-1.57-1.63-3.76.14-4.46,1.33-4.68S199.06,250.66,200,252.72Z"/></g></g></g></svg>