<svg xmlns="http://www.w3.org/2000/svg" xmlns:xlink="http://www.w3.org/1999/xlink" viewBox="0 0 609.67 528.66"><defs><style>.cls-1{fill:url(#linear-gradient);}.cls-2{fill:url(#linear-gradient-2);}.cls-3{fill:none;}.cls-4{isolation:isolate;}.cls-5{opacity:0.15;mix-blend-mode:multiply;}.cls-6{clip-path:url(#clip-path);}.cls-7{fill:#6b99d1;}.cls-8{fill:#dceeff;}.cls-9{fill:#a5cbfa;}.cls-10{fill:#c8e2ff;}.cls-11{fill:#fff;}.cls-12{fill:#344593;}.cls-13{fill:#1e3779;}.cls-14{fill:#031f60;}.cls-15{fill:#022caf;}.cls-16{fill:#0d88d6;}.cls-17{clip-path:url(#clip-path-2);}.cls-18{fill:url(#linear-gradient-3);}.cls-19{clip-path:url(#clip-path-3);}.cls-20{fill:url(#linear-gradient-4);}.cls-21{clip-path:url(#clip-path-4);}.cls-22{fill:url(#linear-gradient-5);}.cls-23{clip-path:url(#clip-path-5);}.cls-24{fill:url(#linear-gradient-6);}.cls-25{clip-path:url(#clip-path-6);}.cls-26{fill:url(#linear-gradient-7);}.cls-27{clip-path:url(#clip-path-7);}.cls-28{fill:url(#linear-gradient-8);}.cls-29{clip-path:url(#clip-path-8);}.cls-30{fill:url(#linear-gradient-9);}.cls-31{clip-path:url(#clip-path-9);}.cls-32{fill:url(#linear-gradient-10);}.cls-33{clip-path:url(#clip-path-10);}.cls-34{fill:url(#linear-gradient-11);}.cls-35{clip-path:url(#clip-path-11);}.cls-36{fill:url(#linear-gradient-12);}.cls-37{clip-path:url(#clip-path-12);}.cls-38{fill:url(#linear-gradient-13);}.cls-39{clip-path:url(#clip-path-13);}.cls-40{fill:url(#linear-gradient-14);}.cls-41{opacity:0.3;}.cls-42{clip-path:url(#clip-path-14);}.cls-43{clip-path:url(#clip-path-15);}.cls-44{mask:url(#mask);}.cls-45{fill:url(#linear-gradient-15);}.cls-46{clip-path:url(#clip-path-16);}.cls-47{clip-path:url(#clip-path-17);}.cls-48{mask:url(#mask-2);}.cls-49{fill:url(#linear-gradient-16);}</style><linearGradient id="linear-gradient" x1="-955.1" y1="1147.77" x2="-954.1" y2="1147.77" gradientTransform="matrix(0, -220.96, -220.96, 0, 253982.2, -210645.28)" gradientUnits="userSpaceOnUse"><stop offset="0" stop-color="#fff"/><stop offset="0.14" stop-color="#d9d9d9"/><stop offset="0.74" stop-color="#3e3e3e"/><stop offset="1"/></linearGradient><linearGradient id="linear-gradient-2" x1="-955.1" y1="1147.77" x2="-954.1" y2="1147.77" gradientTransform="matrix(178.51, 0, 0, -178.51, 170597.26, 205148.5)" xlink:href="#linear-gradient"/><clipPath id="clip-path"><rect class="cls-3" x="127.42" y="324.29" width="354.04" height="204.38"/></clipPath><clipPath id="clip-path-2"><polygon class="cls-3" points="262.37 202.42 304.43 226.7 346.48 202.42 304.42 178.13 262.37 202.42"/></clipPath><linearGradient id="linear-gradient-3" x1="-955.1" y1="1147.77" x2="-954.1" y2="1147.77" gradientTransform="matrix(84.11, 0, 0, -84.11, 80593.68, 96737.98)" gradientUnits="userSpaceOnUse"><stop offset="0" stop-color="#022caf"/><stop offset="1" stop-color="#0d88d6"/></linearGradient><clipPath id="clip-path-3"><path class="cls-3" d="M304.42,356.22v0Z"/></clipPath><linearGradient id="linear-gradient-4" x1="-955.1" y1="1147.8" x2="-954.1" y2="1147.8" gradientTransform="matrix(0.01, 0, 0, -0.01, 317.61, 307.31)" xlink:href="#linear-gradient-3"/><clipPath id="clip-path-4"><path class="cls-3" d="M304.43,226.7l42.05-24.28Z"/></clipPath><linearGradient id="linear-gradient-5" x1="-955.1" y1="1147.77" x2="-954.1" y2="1147.77" gradientTransform="matrix(42.05, 0, 0, -42.05, 40462.67, 48473.43)" xlink:href="#linear-gradient-3"/><clipPath id="clip-path-5"><polygon class="cls-3" points="332.49 259.08 374.55 283.36 416.6 259.08 374.53 234.79 332.49 259.08"/></clipPath><linearGradient id="linear-gradient-6" x1="-955.1" y1="1147.77" x2="-954.1" y2="1147.77" gradientTransform="matrix(84.11, 0, 0, -84.11, 80663.47, 96794.24)" xlink:href="#linear-gradient-3"/><clipPath id="clip-path-6"><path class="cls-3" d="M374.53,396.69l0-113.33Z"/></clipPath><linearGradient id="linear-gradient-7" x1="-955.1" y1="1147.74" x2="-954.1" y2="1147.74" gradientTransform="matrix(0.02, 0, 0, -0.02, 389.04, 357.46)" xlink:href="#linear-gradient-3"/><clipPath id="clip-path-7"><path class="cls-3" d="M374.55,283.36l42.05-24.28Z"/></clipPath><linearGradient id="linear-gradient-8" x1="-955.1" y1="1147.77" x2="-954.1" y2="1147.77" gradientTransform="matrix(42.05, 0, 0, -42.05, 40532.79, 48530.09)" xlink:href="#linear-gradient-3"/><clipPath id="clip-path-8"><polygon class="cls-3" points="192.25 242.89 234.31 267.18 276.36 242.89 234.3 218.6 192.25 242.89"/></clipPath><linearGradient id="linear-gradient-9" x1="-955.1" y1="1147.77" x2="-954.1" y2="1147.77" gradientTransform="matrix(84.11, 0, 0, -84.11, 80524.88, 96780.03)" xlink:href="#linear-gradient-3"/><clipPath id="clip-path-9"><path class="cls-3" d="M234.3,396.69l0-129.51Z"/></clipPath><linearGradient id="linear-gradient-10" x1="-955.1" y1="1147.76" x2="-954.1" y2="1147.76" gradientTransform="matrix(0.01, 0, 0, -0.01, 247.16, 347.38)" xlink:href="#linear-gradient-3"/><clipPath id="clip-path-10"><path class="cls-3" d="M234.32,267.18l42-24.29Z"/></clipPath><linearGradient id="linear-gradient-11" x1="-955.1" y1="1147.77" x2="-954.1" y2="1147.77" gradientTransform="matrix(42.05, 0, 0, -42.05, 40394.2, 48515.88)" xlink:href="#linear-gradient-3"/><clipPath id="clip-path-11"><polygon class="cls-3" points="262.38 315.74 304.45 340.02 346.49 315.74 304.43 291.45 262.38 315.74"/></clipPath><linearGradient id="linear-gradient-12" x1="-955.1" y1="1147.77" x2="-954.1" y2="1147.77" gradientTransform="matrix(84.11, 0, 0, -84.11, 80593.69, 96851.3)" xlink:href="#linear-gradient-3"/><clipPath id="clip-path-12"><path class="cls-3" d="M304.43,437.17l0-97.15Z"/></clipPath><linearGradient id="linear-gradient-13" x1="-955.1" y1="1147.74" x2="-954.1" y2="1147.74" gradientTransform="matrix(0.02, 0, 0, -0.02, 318.94, 406.03)" xlink:href="#linear-gradient-3"/><clipPath id="clip-path-13"><path class="cls-3" d="M304.45,340l42-24.28Z"/></clipPath><linearGradient id="linear-gradient-14" x1="-955.1" y1="1147.77" x2="-954.1" y2="1147.77" gradientTransform="matrix(42.05, 0, 0, -42.05, 40462.69, 48586.75)" xlink:href="#linear-gradient-3"/><clipPath id="clip-path-14"><rect class="cls-3" x="304.29" y="58.75" width="136.84" height="392.58"/></clipPath><clipPath id="clip-path-15"><path class="cls-3" d="M313.4,132.47a15.37,15.37,0,0,1-9,2.14h0V451.32a13.7,13.7,0,0,0,6-1.43l127.21-73.45c2.37-1.3,3.51-2.45,3.51-4V58.75Z"/></clipPath><mask id="mask" x="135.73" y="0" width="473.93" height="510.07" maskUnits="userSpaceOnUse"><rect class="cls-1" x="216.29" y="50.56" width="312.82" height="408.95" transform="translate(-77.32 217.26) rotate(-29.58)"/></mask><linearGradient id="linear-gradient-15" x1="-955.1" y1="1147.77" x2="-954.1" y2="1147.77" gradientTransform="matrix(0, -220.96, -220.96, 0, 253982.2, -210645.29)" gradientUnits="userSpaceOnUse"><stop offset="0" stop-color="#0d88d6"/><stop offset="1" stop-color="#0d88d6"/></linearGradient><clipPath id="clip-path-16"><rect class="cls-3" x="167.72" y="58.74" width="136.7" height="392.59"/></clipPath><clipPath id="clip-path-17"><path class="cls-3" d="M304.28,134.6a18.65,18.65,0,0,1-2.26-.09l-.14,0a16.92,16.92,0,0,1-2.15-.36c-.46-.11-.9-.27-1.34-.41-.28-.09-.57-.15-.84-.26a16.68,16.68,0,0,1-2.06-1L167.72,58.74V372.39a4.19,4.19,0,0,0,2.47,3.46l128.26,74a13.72,13.72,0,0,0,5.8,1.4l.16,0V134.61h-.13"/></clipPath><mask id="mask-2" x="0" y="0.34" width="472.13" height="509.38" maskUnits="userSpaceOnUse"><rect class="cls-2" x="31.47" y="99.25" width="409.19" height="311.56" transform="translate(-101.93 335.8) rotate(-60.65)"/></mask><linearGradient id="linear-gradient-16" x1="-955.1" y1="1147.77" x2="-954.1" y2="1147.77" gradientTransform="matrix(178.52, 0, 0, -178.52, 170597.29, 205148.51)" xlink:href="#linear-gradient-15"/></defs><g class="cls-4"><g id="Layer_2" data-name="Layer 2"><g id="Layer_1-2" data-name="Layer 1"><g class="cls-5"><g class="cls-6"><path class="cls-7" d="M477.75,431.64,313.42,526.53a20,20,0,0,1-17.95,0L131.14,431.64c-2.49-1.42-3.73-3.28-3.73-5.18a5.33,5.33,0,0,1,2-3.9,8.38,8.38,0,0,1,1.76-1.27l164.33-94.85c4.94-2.87,13-2.87,17.95,0l164.33,94.85c4.94,2.86,4.94,7.52,0,10.35"/></g></g><path class="cls-8" d="M477.75,410,313.42,504.83a19.93,19.93,0,0,1-17.91,0L131.14,410c-2.49-1.45-3.73-3.31-3.73-5.18s1.24-3.76,3.73-5.17l26.09-15.05,138.24-79.84c4.94-2.86,13-2.86,17.95,0l164.33,94.89c4.94,2.82,4.94,7.48,0,10.35"/><path class="cls-9" d="M304.44,469.55V507a18.3,18.3,0,0,1-8.93-2.11L131.14,410c-2.49-1.45-3.73-3.31-3.73-5.18V372.39a5.3,5.3,0,0,1,2-3.9l27.85,16.08Z"/><path class="cls-10" d="M304.44,469.55V507a18.31,18.31,0,0,0,8.94-2.11L477.75,410c2.48-1.45,3.73-3.31,3.73-5.18V372.39a5.3,5.3,0,0,0-2-3.9l-27.86,16.08Z"/><path class="cls-8" d="M477.75,377.57,313.42,472.45a19.89,19.89,0,0,1-17.95,0L131.14,377.57c-2.49-1.42-3.73-3.28-3.73-5.18a5.3,5.3,0,0,1,2-3.9,8.78,8.78,0,0,1,1.76-1.28l164.33-94.85c4.94-2.86,13-2.86,17.95,0l164.33,94.85c4.94,2.87,4.94,7.53,0,10.36"/><path class="cls-11" d="M304.43,271.22a17.3,17.3,0,0,1,8.49,2l164.33,94.85c2.07,1.2,3.2,2.74,3.2,4.33s-1.14,3.11-3.2,4.29L312.91,471.59a18.94,18.94,0,0,1-16.94,0L131.63,376.7c-2.07-1.18-3.22-2.71-3.22-4.31a4.38,4.38,0,0,1,1.65-3.17,7.64,7.64,0,0,1,1.58-1.14L296,273.23a17.13,17.13,0,0,1,8.46-2m0-1a18.27,18.27,0,0,0-9,2.14L131.14,367.21a8.78,8.78,0,0,0-1.76,1.28,5.3,5.3,0,0,0-2,3.9c0,1.9,1.24,3.76,3.73,5.18l164.33,94.88a19.89,19.89,0,0,0,17.95,0l164.33-94.88c4.94-2.83,4.94-7.49,0-10.36L313.42,272.36a18.44,18.44,0,0,0-9-2.14"/><path class="cls-12" d="M298.46,294.91,170.21,369c-3.3,1.91-3.3,5,0,6.91l128.25,74a13.2,13.2,0,0,0,12,0l128.24-74c3.31-1.91,3.31-5,0-6.91l-128.24-74a13.2,13.2,0,0,0-12,0"/><path class="cls-13" d="M438.66,369l-128.24-74a12.31,12.31,0,0,0-6-1.43v6.08l133.2,76.89,1-.59c3.31-1.91,3.31-5,0-6.91"/><path class="cls-14" d="M304.44,293.48a12.24,12.24,0,0,0-6,1.43L170.21,369c-3.3,1.9-3.3,5,0,6.9l1,.59,133.2-76.89Z"/><polygon class="cls-15" points="262.37 331.93 304.42 356.22 304.43 226.7 262.37 202.42 262.37 331.93"/><polygon class="cls-16" points="304.42 356.22 346.49 331.93 346.48 202.42 304.43 226.7 304.42 356.22"/><g class="cls-17"><rect class="cls-18" x="262.37" y="178.13" width="84.11" height="48.58"/></g><g class="cls-19"><rect class="cls-20" x="304.42" y="226.7" width="0.01" height="129.52"/></g><g class="cls-21"><rect class="cls-22" x="304.43" y="202.42" width="42.05" height="24.28"/></g><polygon class="cls-15" points="332.49 372.39 374.54 396.69 374.55 283.36 332.49 259.08 332.49 372.39"/><polygon class="cls-16" points="374.54 396.69 416.61 372.4 416.6 259.08 374.55 283.36 374.54 396.69"/><g class="cls-23"><rect class="cls-24" x="332.49" y="234.79" width="84.11" height="48.58"/></g><g class="cls-25"><rect class="cls-26" x="374.53" y="283.36" width="0.02" height="113.32"/></g><g class="cls-27"><rect class="cls-28" x="374.55" y="259.08" width="42.04" height="24.29"/></g><polygon class="cls-15" points="192.25 372.4 234.3 396.69 234.32 267.17 192.25 242.89 192.25 372.4"/><polygon class="cls-16" points="234.3 396.69 276.38 372.4 276.36 242.89 234.32 267.17 234.3 396.69"/><g class="cls-29"><rect class="cls-30" x="192.26" y="218.6" width="84.11" height="48.58"/></g><g class="cls-31"><rect class="cls-32" x="234.3" y="267.18" width="0.01" height="129.52"/></g><g class="cls-33"><rect class="cls-34" x="234.32" y="242.89" width="42.05" height="24.29"/></g><polygon class="cls-15" points="262.38 412.88 304.43 437.17 304.45 340.02 262.38 315.74 262.38 412.88"/><polygon class="cls-16" points="304.43 437.17 346.51 412.88 346.49 315.74 304.45 340.02 304.43 437.17"/><g class="cls-35"><rect class="cls-36" x="262.38" y="291.45" width="84.11" height="48.58"/></g><g class="cls-37"><rect class="cls-38" x="304.43" y="340.02" width="0.02" height="97.15"/></g><g class="cls-39"><rect class="cls-40" x="304.45" y="315.74" width="42.04" height="24.28"/></g><g class="cls-41"><g class="cls-42"><g class="cls-43"><g class="cls-44"><rect class="cls-45" x="216.29" y="50.56" width="312.82" height="408.95" transform="translate(-77.32 217.26) rotate(-29.58)"/></g></g></g></g><g class="cls-41"><g class="cls-46"><g class="cls-47"><g class="cls-48"><rect class="cls-49" x="31.47" y="99.25" width="409.19" height="311.56" transform="translate(-101.93 335.8) rotate(-60.65)"/></g></g></g></g></g></g></g></svg>
